<svg width="456" height="350" viewBox="0 0 456 350" fill="none" xmlns="http://www.w3.org/2000/svg">
<rect width="456" height="350" rx="10" fill="#EFEFEF"/>
<mask id="mask0_240_388" style="mask-type:alpha" maskUnits="userSpaceOnUse" x="0" y="0" width="456" height="350">
<rect width="456" height="350" rx="10" fill="black"/>
</mask>
<g mask="url(#mask0_240_388)">
<path d="M-2657.71 -382.135C-2139.77 350.125 -1558.2 -962.586 -648.455 -750.498C261.289 -538.41 -35.1168 -231.274 434.308 -47.26C923.716 144.588 1403.17 -213.131 1762.65 170.409C2342.35 788.923 763.963 1499.52 -68.005 1336.89C-540.869 1244.46 -1472.99 1150.49 -1089.37 644.816" stroke="white" stroke-width="1.18334"/>
<path d="M-2668.6 -330.166C-2150.66 402.094 -1569.1 -910.617 -659.352 -698.529C250.393 -486.441 -46.0133 -179.305 423.411 4.70897C912.82 196.556 1392.27 -161.162 1751.75 222.378C2331.46 840.892 753.066 1551.49 -78.9015 1388.86C-551.765 1296.43 -1483.88 1202.46 -1100.27 696.785" stroke="white" stroke-width="1.18334"/>
<path d="M-2679.06 -280.31C-2161.12 451.951 -1579.55 -860.76 -669.806 -648.673C239.939 -436.585 -56.4674 -129.449 412.957 54.5654C902.366 246.413 1381.82 -111.306 1741.3 272.234C2321 890.748 742.612 1601.35 -89.3556 1438.72C-562.219 1346.28 -1494.34 1252.31 -1110.73 746.641" stroke="white" stroke-width="1.18334"/>
<path d="M-2689.07 -232.566C-2171.13 499.695 -1589.56 -813.017 -679.817 -600.929C229.928 -388.841 -66.4782 -81.7047 402.947 102.309C892.355 294.157 1371.81 -63.5619 1731.29 319.978C2310.99 938.492 732.601 1649.09 -99.3663 1486.46C-572.23 1394.03 -1504.35 1300.06 -1120.74 794.385" stroke="white" stroke-width="1.18334"/>
<path d="M-2698.64 -186.935C-2180.7 545.326 -1599.13 -767.385 -689.385 -555.297C220.36 -343.21 -76.046 -36.0732 393.379 147.941C882.787 339.788 1362.24 -17.9304 1721.72 365.61C2301.42 984.123 723.033 1694.72 -108.934 1532.09C-581.798 1439.66 -1513.92 1345.69 -1130.3 840.017" stroke="white" stroke-width="1.18334"/>
<path d="M-2707.76 -143.416C-2189.82 588.845 -1608.25 -723.866 -698.51 -511.779C211.235 -299.691 -85.171 7.44561 384.254 191.46C873.662 383.307 1353.12 25.5884 1712.59 409.129C2292.3 1027.64 713.908 1738.24 -118.059 1575.61C-590.923 1483.18 -1523.04 1389.21 -1139.43 883.535" stroke="white" stroke-width="1.18334"/>
<path d="M-2716.44 -102.01C-2198.5 630.251 -1616.94 -682.46 -707.192 -470.372C202.553 -258.285 -93.8532 48.8517 375.572 232.866C864.98 424.713 1344.43 66.9945 1703.91 450.535C2283.62 1069.05 705.226 1779.65 -126.741 1617.02C-599.605 1524.58 -1531.72 1430.61 -1148.11 924.942" stroke="white" stroke-width="1.18334"/>
<path d="M-2724.68 -62.7159C-2206.74 669.545 -1625.18 -643.166 -715.431 -431.079C194.314 -218.991 -102.092 88.1454 367.333 272.159C856.741 464.007 1336.2 106.288 1695.67 489.828C2275.38 1108.34 696.988 1818.94 -134.98 1656.31C-607.844 1563.88 -1539.96 1469.91 -1156.35 964.235" stroke="white" stroke-width="1.18334"/>
<path d="M-2732.48 -25.5348C-2214.54 706.726 -1632.97 -605.985 -723.226 -393.898C186.518 -181.81 -109.888 125.327 359.537 309.341C848.945 501.188 1328.4 143.469 1687.88 527.01C2267.58 1145.52 689.192 1856.12 -142.776 1693.49C-615.64 1601.06 -1547.76 1507.09 -1164.15 1001.42" stroke="white" stroke-width="1.18334"/>
<path d="M-2739.83 9.53384C-2221.89 741.795 -1640.32 -570.917 -730.58 -358.829C179.165 -146.741 -117.241 160.395 352.183 344.409C841.592 536.257 1321.05 178.538 1680.52 562.078C2260.23 1180.59 681.838 1891.19 -150.129 1728.56C-622.993 1636.13 -1555.11 1542.16 -1171.5 1036.48" stroke="white" stroke-width="1.18334"/>
<path d="M-2746.74 42.4897C-2228.8 774.75 -1647.23 -537.961 -737.49 -325.873C172.255 -113.785 -124.151 193.351 345.273 377.365C834.682 569.213 1314.14 211.494 1673.61 595.034C2253.32 1213.55 674.928 1924.14 -157.04 1761.52C-629.903 1669.08 -1562.02 1575.11 -1178.41 1069.44" stroke="white" stroke-width="1.18334"/>
<path d="M-2753.21 73.3332C-2235.27 805.594 -1653.7 -507.117 -743.957 -295.03C165.788 -82.942 -130.618 224.195 338.806 408.208C828.215 600.056 1307.67 242.337 1667.15 625.878C2246.85 1244.39 668.461 1954.99 -163.506 1792.36C-636.37 1699.93 -1568.49 1605.96 -1184.88 1100.28" stroke="white" stroke-width="1.18334"/>
<path d="M-2759.23 102.064C-2241.29 834.325 -1659.73 -478.387 -749.981 -266.299C159.763 -54.2111 -136.643 252.925 332.782 436.939C822.19 628.787 1301.65 271.068 1661.12 654.608C2240.83 1273.12 662.437 1983.72 -169.531 1821.09C-642.395 1728.66 -1574.51 1634.69 -1190.9 1129.02" stroke="white" stroke-width="1.18334"/>
<path d="M-2764.81 128.682C-2246.87 860.943 -1665.31 -451.768 -755.562 -239.68C154.182 -27.5927 -142.224 279.544 327.201 463.558C816.609 655.405 1296.06 297.687 1655.54 681.227C2235.25 1299.74 656.856 2010.34 -175.112 1847.71C-647.976 1755.28 -1580.09 1661.3 -1196.48 1155.63" stroke="white" stroke-width="1.18334"/>
<path d="M-2769.95 153.188C-2252.01 885.449 -1670.45 -427.262 -760.701 -215.175C149.044 -3.08697 -147.362 304.049 322.063 488.063C811.471 679.911 1290.93 322.192 1650.4 705.733C2230.11 1324.25 651.718 2034.84 -180.25 1872.21C-653.114 1779.78 -1585.23 1685.81 -1201.62 1180.14" stroke="white" stroke-width="1.18334"/>
<path d="M-2774.65 175.581C-2256.71 907.842 -1675.14 -404.869 -765.396 -192.782C144.348 19.3061 -152.058 326.443 317.367 510.457C806.775 702.304 1286.23 344.585 1645.71 728.126C2225.41 1346.64 647.022 2057.24 -184.946 1894.61C-657.81 1802.17 -1589.93 1708.2 -1206.32 1202.53" stroke="white" stroke-width="1.18334"/>
<path d="M-2778.9 195.862C-2260.96 928.123 -1679.39 -384.589 -769.648 -172.501C140.096 39.5867 -156.31 346.723 313.115 530.737C802.523 722.585 1281.98 364.866 1641.45 748.406C2221.16 1366.92 642.77 2077.52 -189.198 1914.89C-662.062 1822.45 -1594.18 1728.48 -1210.57 1222.81" stroke="white" stroke-width="1.18334"/>
<path d="M-2782.71 214.03C-2264.77 946.29 -1683.2 -366.421 -773.458 -154.333C136.287 57.7547 -160.119 364.891 309.305 548.905C798.714 740.753 1278.17 383.034 1637.64 766.574C2217.35 1385.09 638.96 2095.69 -193.007 1933.06C-665.871 1840.62 -1597.99 1746.65 -1214.38 1240.98" stroke="white" stroke-width="1.18334"/>
<path d="M-2786.08 230.085C-2268.14 962.346 -1686.57 -350.365 -776.825 -138.277C132.92 73.8102 -163.486 380.947 305.939 564.961C795.347 756.808 1274.8 399.089 1634.28 782.63C2213.98 1401.14 635.594 2111.74 -196.374 1949.11C-669.238 1856.68 -1601.36 1762.71 -1217.74 1257.04" stroke="white" stroke-width="1.18334"/>
<path d="M-2789 244.028C-2271.06 976.289 -1689.49 -336.422 -779.748 -124.335C129.997 87.7531 -166.409 394.89 303.015 578.904C792.424 770.751 1271.88 413.032 1631.35 796.573C2211.06 1415.09 632.67 2125.68 -199.297 1963.05C-672.161 1870.62 -1604.28 1776.65 -1220.67 1270.98" stroke="white" stroke-width="1.18334"/>
<g filter="url(#filter0_d_240_388)">
<path d="M40 50C40 44.4772 44.4772 40 50 40H406C411.523 40 416 44.4772 416 50V350H40V50Z" fill="white"/>
</g>
<circle cx="59" cy="59" r="4" fill="#FC4A4A"/>
<circle cx="72" cy="59" r="4" fill="#EAB734"/>
<circle cx="85" cy="59" r="4" fill="#2FC859"/>
<rect opacity="0.5" x="40" y="78" width="376" height="1" fill="#D9D9D9"/>
<g filter="url(#filter1_d_240_388)">
<rect x="60" y="240" width="336" height="28" rx="5" fill="white"/>
<rect x="60.5" y="240.5" width="335" height="27" rx="4.5" stroke="#E4E4E4"/>
</g>
<rect x="317" y="243" width="76" height="22" rx="5" fill="black"/>
<path fill-rule="evenodd" clip-rule="evenodd" d="M77.4347 253.217C77.4347 255.546 75.5465 257.435 73.2173 257.435C70.8882 257.435 69 255.546 69 253.217C69 250.888 70.8882 249 73.2173 249C75.5465 249 77.4347 250.888 77.4347 253.217ZM76.6364 257.158C75.7207 257.953 74.5252 258.435 73.2173 258.435C70.3359 258.435 68 256.099 68 253.217C68 250.336 70.3359 248 73.2173 248C76.0988 248 78.4347 250.336 78.4347 253.217C78.4347 254.431 78.0205 255.547 77.3258 256.433L80.1852 259.293L79.4781 260L76.6364 257.158Z" fill="#AEAEAE"/>
<path d="M89.192 258L86.384 249.6H87.62L90.2 257.352H89.576L92.252 249.6H93.356L95.972 257.352H95.372L97.988 249.6H99.128L96.32 258H95.06L92.612 250.812H92.936L90.476 258H89.192ZM104 251.58C104.52 251.58 104.976 251.68 105.368 251.88C105.768 252.08 106.08 252.384 106.304 252.792C106.528 253.2 106.64 253.716 106.64 254.34V258H105.488V254.472C105.488 253.856 105.336 253.392 105.032 253.08C104.736 252.768 104.316 252.612 103.772 252.612C103.364 252.612 103.008 252.692 102.704 252.852C102.4 253.012 102.164 253.248 101.996 253.56C101.836 253.872 101.756 254.26 101.756 254.724V258H100.604V249.096H101.756V253.356L101.528 252.9C101.736 252.484 102.056 252.16 102.488 251.928C102.92 251.696 103.424 251.58 104 251.58ZM112.72 258V256.656L112.66 256.404V254.112C112.66 253.624 112.516 253.248 112.228 252.984C111.948 252.712 111.524 252.576 110.956 252.576C110.58 252.576 110.212 252.64 109.852 252.768C109.492 252.888 109.188 253.052 108.94 253.26L108.46 252.396C108.788 252.132 109.18 251.932 109.636 251.796C110.1 251.652 110.584 251.58 111.088 251.58C111.96 251.58 112.632 251.792 113.104 252.216C113.576 252.64 113.812 253.288 113.812 254.16V258H112.72ZM110.632 258.072C110.16 258.072 109.744 257.992 109.384 257.832C109.032 257.672 108.76 257.452 108.568 257.172C108.376 256.884 108.28 256.56 108.28 256.2C108.28 255.856 108.36 255.544 108.52 255.264C108.688 254.984 108.956 254.76 109.324 254.592C109.7 254.424 110.204 254.34 110.836 254.34H112.852V255.168H110.884C110.308 255.168 109.92 255.264 109.72 255.456C109.52 255.648 109.42 255.88 109.42 256.152C109.42 256.464 109.544 256.716 109.792 256.908C110.04 257.092 110.384 257.184 110.824 257.184C111.256 257.184 111.632 257.088 111.952 256.896C112.28 256.704 112.516 256.424 112.66 256.056L112.888 256.848C112.736 257.224 112.468 257.524 112.084 257.748C111.7 257.964 111.216 258.072 110.632 258.072ZM118.128 258.072C117.488 258.072 116.992 257.9 116.64 257.556C116.288 257.212 116.112 256.72 116.112 256.08V250.248H117.264V256.032C117.264 256.376 117.348 256.64 117.516 256.824C117.692 257.008 117.94 257.1 118.26 257.1C118.62 257.1 118.92 257 119.16 256.8L119.52 257.628C119.344 257.78 119.132 257.892 118.884 257.964C118.644 258.036 118.392 258.072 118.128 258.072ZM115.032 252.588V251.64H119.088V252.588H115.032ZM120.456 252.372L121.056 249.936L121.212 250.632C120.98 250.632 120.784 250.56 120.624 250.416C120.472 250.272 120.396 250.08 120.396 249.84C120.396 249.592 120.472 249.396 120.624 249.252C120.784 249.1 120.976 249.024 121.2 249.024C121.432 249.024 121.62 249.104 121.764 249.264C121.908 249.416 121.98 249.608 121.98 249.84C121.98 249.912 121.976 249.988 121.968 250.068C121.96 250.14 121.94 250.224 121.908 250.32C121.884 250.416 121.844 250.54 121.788 250.692L121.212 252.372H120.456ZM125.256 258.072C124.728 258.072 124.224 258 123.744 257.856C123.272 257.712 122.9 257.536 122.628 257.328L123.108 256.416C123.38 256.6 123.716 256.756 124.116 256.884C124.516 257.012 124.924 257.076 125.34 257.076C125.876 257.076 126.26 257 126.492 256.848C126.732 256.696 126.852 256.484 126.852 256.212C126.852 256.012 126.78 255.856 126.636 255.744C126.492 255.632 126.3 255.548 126.06 255.492C125.828 255.436 125.568 255.388 125.28 255.348C124.992 255.3 124.704 255.244 124.416 255.18C124.128 255.108 123.864 255.012 123.624 254.892C123.384 254.764 123.192 254.592 123.048 254.376C122.904 254.152 122.832 253.856 122.832 253.488C122.832 253.104 122.94 252.768 123.156 252.48C123.372 252.192 123.676 251.972 124.068 251.82C124.468 251.66 124.94 251.58 125.484 251.58C125.9 251.58 126.32 251.632 126.744 251.736C127.176 251.832 127.528 251.972 127.8 252.156L127.308 253.068C127.02 252.876 126.72 252.744 126.408 252.672C126.096 252.6 125.784 252.564 125.472 252.564C124.968 252.564 124.592 252.648 124.344 252.816C124.096 252.976 123.972 253.184 123.972 253.44C123.972 253.656 124.044 253.824 124.188 253.944C124.34 254.056 124.532 254.144 124.764 254.208C125.004 254.272 125.268 254.328 125.556 254.376C125.844 254.416 126.132 254.472 126.42 254.544C126.708 254.608 126.968 254.7 127.2 254.82C127.44 254.94 127.632 255.108 127.776 255.324C127.928 255.54 128.004 255.828 128.004 256.188C128.004 256.572 127.892 256.904 127.668 257.184C127.444 257.464 127.128 257.684 126.72 257.844C126.312 257.996 125.824 258.072 125.256 258.072ZM132.666 258V251.64H133.818V258H132.666ZM133.242 250.416C133.018 250.416 132.83 250.344 132.678 250.2C132.534 250.056 132.462 249.88 132.462 249.672C132.462 249.456 132.534 249.276 132.678 249.132C132.83 248.988 133.018 248.916 133.242 248.916C133.466 248.916 133.65 248.988 133.794 249.132C133.946 249.268 134.022 249.44 134.022 249.648C134.022 249.864 133.95 250.048 133.806 250.2C133.662 250.344 133.474 250.416 133.242 250.416ZM139.414 251.58C139.934 251.58 140.39 251.68 140.782 251.88C141.182 252.08 141.494 252.384 141.718 252.792C141.942 253.2 142.054 253.716 142.054 254.34V258H140.902V254.472C140.902 253.856 140.75 253.392 140.446 253.08C140.15 252.768 139.73 252.612 139.186 252.612C138.778 252.612 138.422 252.692 138.118 252.852C137.814 253.012 137.578 253.248 137.41 253.56C137.25 253.872 137.17 254.26 137.17 254.724V258H136.018V251.64H137.122V253.356L136.942 252.9C137.15 252.484 137.47 252.16 137.902 251.928C138.334 251.696 138.838 251.58 139.414 251.58ZM147.684 260.4C147.38 260.4 147.084 260.348 146.796 260.244C146.508 260.148 146.26 260.004 146.052 259.812L146.544 258.948C146.704 259.1 146.88 259.216 147.072 259.296C147.264 259.376 147.468 259.416 147.684 259.416C147.964 259.416 148.196 259.344 148.38 259.2C148.564 259.056 148.736 258.8 148.896 258.432L149.292 257.556L149.412 257.412L151.908 251.64H153.036L149.952 258.636C149.768 259.084 149.56 259.436 149.328 259.692C149.104 259.948 148.856 260.128 148.584 260.232C148.312 260.344 148.012 260.4 147.684 260.4ZM149.196 258.204L146.292 251.64H147.492L149.964 257.304L149.196 258.204ZM156.66 258.072C156.02 258.072 155.452 257.932 154.956 257.652C154.46 257.372 154.068 256.988 153.78 256.5C153.492 256.004 153.348 255.444 153.348 254.82C153.348 254.188 153.492 253.628 153.78 253.14C154.068 252.652 154.46 252.272 154.956 252C155.452 251.72 156.02 251.58 156.66 251.58C157.292 251.58 157.856 251.72 158.352 252C158.856 252.272 159.248 252.652 159.528 253.14C159.816 253.62 159.96 254.18 159.96 254.82C159.96 255.452 159.816 256.012 159.528 256.5C159.248 256.988 158.856 257.372 158.352 257.652C157.856 257.932 157.292 258.072 156.66 258.072ZM156.66 257.064C157.068 257.064 157.432 256.972 157.752 256.788C158.08 256.604 158.336 256.344 158.52 256.008C158.704 255.664 158.796 255.268 158.796 254.82C158.796 254.364 158.704 253.972 158.52 253.644C158.336 253.308 158.08 253.048 157.752 252.864C157.432 252.68 157.068 252.588 156.66 252.588C156.252 252.588 155.888 252.68 155.568 252.864C155.248 253.048 154.992 253.308 154.8 253.644C154.608 253.972 154.512 254.364 154.512 254.82C154.512 255.268 154.608 255.664 154.8 256.008C154.992 256.344 155.248 256.604 155.568 256.788C155.888 256.972 156.252 257.064 156.66 257.064ZM164.229 258.072C163.685 258.072 163.205 257.972 162.789 257.772C162.381 257.572 162.061 257.268 161.829 256.86C161.605 256.444 161.493 255.924 161.493 255.3V251.64H162.645V255.168C162.645 255.792 162.793 256.26 163.089 256.572C163.393 256.884 163.817 257.04 164.361 257.04C164.761 257.04 165.109 256.96 165.405 256.8C165.701 256.632 165.929 256.392 166.089 256.08C166.249 255.76 166.329 255.376 166.329 254.928V251.64H167.481V258H166.389V256.284L166.569 256.74C166.361 257.164 166.049 257.492 165.633 257.724C165.217 257.956 164.749 258.072 164.229 258.072ZM169.674 258V251.64H170.778V253.368L170.67 252.936C170.846 252.496 171.142 252.16 171.558 251.928C171.974 251.696 172.486 251.58 173.094 251.58V252.696C173.046 252.688 172.998 252.684 172.95 252.684C172.91 252.684 172.87 252.684 172.83 252.684C172.214 252.684 171.726 252.868 171.366 253.236C171.006 253.604 170.826 254.136 170.826 254.832V258H169.674ZM185.775 251.58C186.287 251.58 186.739 251.68 187.131 251.88C187.523 252.08 187.827 252.384 188.043 252.792C188.267 253.2 188.379 253.716 188.379 254.34V258H187.227V254.472C187.227 253.856 187.083 253.392 186.795 253.08C186.507 252.768 186.103 252.612 185.583 252.612C185.199 252.612 184.863 252.692 184.575 252.852C184.287 253.012 184.063 253.248 183.903 253.56C183.751 253.872 183.675 254.26 183.675 254.724V258H182.523V254.472C182.523 253.856 182.379 253.392 182.091 253.08C181.811 252.768 181.407 252.612 180.879 252.612C180.503 252.612 180.171 252.692 179.883 252.852C179.595 253.012 179.371 253.248 179.211 253.56C179.051 253.872 178.971 254.26 178.971 254.724V258H177.819V251.64H178.923V253.332L178.743 252.9C178.943 252.484 179.251 252.16 179.667 251.928C180.083 251.696 180.567 251.58 181.119 251.58C181.727 251.58 182.251 251.732 182.691 252.036C183.131 252.332 183.419 252.784 183.555 253.392L183.087 253.2C183.279 252.712 183.615 252.32 184.095 252.024C184.575 251.728 185.135 251.58 185.775 251.58ZM190.498 258V251.64H191.65V258H190.498ZM191.074 250.416C190.85 250.416 190.662 250.344 190.51 250.2C190.366 250.056 190.294 249.88 190.294 249.672C190.294 249.456 190.366 249.276 190.51 249.132C190.662 248.988 190.85 248.916 191.074 248.916C191.298 248.916 191.482 248.988 191.626 249.132C191.778 249.268 191.854 249.44 191.854 249.648C191.854 249.864 191.782 250.048 191.638 250.2C191.494 250.344 191.306 250.416 191.074 250.416ZM197.246 251.58C197.766 251.58 198.222 251.68 198.614 251.88C199.014 252.08 199.326 252.384 199.55 252.792C199.774 253.2 199.886 253.716 199.886 254.34V258H198.734V254.472C198.734 253.856 198.582 253.392 198.278 253.08C197.982 252.768 197.562 252.612 197.018 252.612C196.61 252.612 196.254 252.692 195.95 252.852C195.646 253.012 195.41 253.248 195.242 253.56C195.082 253.872 195.002 254.26 195.002 254.724V258H193.85V251.64H194.954V253.356L194.774 252.9C194.982 252.484 195.302 252.16 195.734 251.928C196.166 251.696 196.67 251.58 197.246 251.58ZM204.646 258.072C204.03 258.072 203.478 257.936 202.99 257.664C202.51 257.392 202.13 257.012 201.85 256.524C201.57 256.036 201.43 255.468 201.43 254.82C201.43 254.172 201.57 253.608 201.85 253.128C202.13 252.64 202.51 252.26 202.99 251.988C203.478 251.716 204.03 251.58 204.646 251.58C205.182 251.58 205.666 251.7 206.098 251.94C206.53 252.18 206.874 252.54 207.13 253.02C207.394 253.5 207.526 254.1 207.526 254.82C207.526 255.54 207.398 256.14 207.142 256.62C206.894 257.1 206.554 257.464 206.122 257.712C205.69 257.952 205.198 258.072 204.646 258.072ZM204.742 257.064C205.142 257.064 205.502 256.972 205.822 256.788C206.15 256.604 206.406 256.344 206.59 256.008C206.782 255.664 206.878 255.268 206.878 254.82C206.878 254.364 206.782 253.972 206.59 253.644C206.406 253.308 206.15 253.048 205.822 252.864C205.502 252.68 205.142 252.588 204.742 252.588C204.334 252.588 203.97 252.68 203.65 252.864C203.33 253.048 203.074 253.308 202.882 253.644C202.69 253.972 202.594 254.364 202.594 254.82C202.594 255.268 202.69 255.664 202.882 256.008C203.074 256.344 203.33 256.604 203.65 256.788C203.97 256.972 204.334 257.064 204.742 257.064ZM206.914 258V256.284L206.986 254.808L206.866 253.332V249.096H208.018V258H206.914ZM211.841 255.348C211.841 255.036 211.893 254.764 211.997 254.532C212.101 254.3 212.229 254.092 212.381 253.908C212.541 253.724 212.713 253.556 212.897 253.404C213.081 253.244 213.253 253.088 213.413 252.936C213.573 252.776 213.701 252.608 213.797 252.432C213.901 252.256 213.953 252.052 213.953 251.82C213.953 251.436 213.801 251.124 213.497 250.884C213.193 250.644 212.773 250.524 212.237 250.524C211.757 250.524 211.341 250.604 210.989 250.764C210.637 250.924 210.337 251.16 210.089 251.472L209.213 250.848C209.549 250.424 209.977 250.096 210.497 249.864C211.017 249.624 211.625 249.504 212.321 249.504C212.897 249.504 213.397 249.592 213.821 249.768C214.245 249.936 214.573 250.18 214.805 250.5C215.045 250.812 215.165 251.192 215.165 251.64C215.165 251.976 215.113 252.264 215.009 252.504C214.905 252.744 214.773 252.956 214.613 253.14C214.453 253.324 214.281 253.496 214.097 253.656C213.921 253.816 213.753 253.976 213.593 254.136C213.433 254.296 213.301 254.472 213.197 254.664C213.093 254.856 213.041 255.084 213.041 255.348H211.841ZM212.453 258.072C212.229 258.072 212.041 257.996 211.889 257.844C211.745 257.692 211.673 257.512 211.673 257.304C211.673 257.08 211.745 256.896 211.889 256.752C212.041 256.608 212.229 256.536 212.453 256.536C212.677 256.536 212.861 256.608 213.005 256.752C213.149 256.896 213.221 257.08 213.221 257.304C213.221 257.512 213.149 257.692 213.005 257.844C212.861 257.996 212.677 258.072 212.453 258.072Z" fill="#AEAEAE"/>
<path d="M332.052 258.096C331.404 258.096 330.808 257.992 330.264 257.784C329.72 257.568 329.248 257.268 328.848 256.884C328.448 256.492 328.136 256.036 327.912 255.516C327.688 254.996 327.576 254.424 327.576 253.8C327.576 253.176 327.688 252.604 327.912 252.084C328.136 251.564 328.448 251.112 328.848 250.728C329.256 250.336 329.732 250.036 330.276 249.828C330.82 249.612 331.42 249.504 332.076 249.504C332.74 249.504 333.348 249.612 333.9 249.828C334.452 250.044 334.92 250.368 335.304 250.8L334.56 251.544C334.216 251.208 333.84 250.964 333.432 250.812C333.032 250.652 332.596 250.572 332.124 250.572C331.644 250.572 331.196 250.652 330.78 250.812C330.372 250.972 330.016 251.196 329.712 251.484C329.416 251.772 329.184 252.116 329.016 252.516C328.856 252.908 328.776 253.336 328.776 253.8C328.776 254.256 328.856 254.684 329.016 255.084C329.184 255.476 329.416 255.82 329.712 256.116C330.016 256.404 330.372 256.628 330.78 256.788C331.188 256.948 331.632 257.028 332.112 257.028C332.56 257.028 332.988 256.96 333.396 256.824C333.812 256.68 334.196 256.444 334.548 256.116L335.232 257.028C334.816 257.38 334.328 257.648 333.768 257.832C333.216 258.008 332.644 258.096 332.052 258.096ZM334.08 256.872V253.752H335.232V257.028L334.08 256.872ZM340.194 258.072C339.514 258.072 338.914 257.932 338.394 257.652C337.882 257.372 337.482 256.988 337.194 256.5C336.914 256.012 336.774 255.452 336.774 254.82C336.774 254.188 336.91 253.628 337.182 253.14C337.462 252.652 337.842 252.272 338.322 252C338.81 251.72 339.358 251.58 339.966 251.58C340.582 251.58 341.126 251.716 341.598 251.988C342.07 252.26 342.438 252.644 342.702 253.14C342.974 253.628 343.11 254.2 343.11 254.856C343.11 254.904 343.106 254.96 343.098 255.024C343.098 255.088 343.094 255.148 343.086 255.204H337.674V254.376H342.486L342.018 254.664C342.026 254.256 341.942 253.892 341.766 253.572C341.59 253.252 341.346 253.004 341.034 252.828C340.73 252.644 340.374 252.552 339.966 252.552C339.566 252.552 339.21 252.644 338.898 252.828C338.586 253.004 338.342 253.256 338.166 253.584C337.99 253.904 337.902 254.272 337.902 254.688V254.88C337.902 255.304 337.998 255.684 338.19 256.02C338.39 256.348 338.666 256.604 339.018 256.788C339.37 256.972 339.774 257.064 340.23 257.064C340.606 257.064 340.946 257 341.25 256.872C341.562 256.744 341.834 256.552 342.066 256.296L342.702 257.04C342.414 257.376 342.054 257.632 341.622 257.808C341.198 257.984 340.722 258.072 340.194 258.072ZM348.105 251.58C348.625 251.58 349.081 251.68 349.473 251.88C349.873 252.08 350.185 252.384 350.409 252.792C350.633 253.2 350.745 253.716 350.745 254.34V258H349.593V254.472C349.593 253.856 349.441 253.392 349.137 253.08C348.841 252.768 348.421 252.612 347.877 252.612C347.469 252.612 347.113 252.692 346.809 252.852C346.505 253.012 346.269 253.248 346.101 253.56C345.941 253.872 345.861 254.26 345.861 254.724V258H344.709V251.64H345.813V253.356L345.633 252.9C345.841 252.484 346.161 252.16 346.593 251.928C347.025 251.696 347.529 251.58 348.105 251.58ZM355.709 258.072C355.029 258.072 354.429 257.932 353.909 257.652C353.397 257.372 352.997 256.988 352.709 256.5C352.429 256.012 352.289 255.452 352.289 254.82C352.289 254.188 352.425 253.628 352.697 253.14C352.977 252.652 353.357 252.272 353.837 252C354.325 251.72 354.873 251.58 355.481 251.58C356.097 251.58 356.641 251.716 357.113 251.988C357.585 252.26 357.953 252.644 358.217 253.14C358.489 253.628 358.625 254.2 358.625 254.856C358.625 254.904 358.621 254.96 358.613 255.024C358.613 255.088 358.609 255.148 358.601 255.204H353.189V254.376H358.001L357.533 254.664C357.541 254.256 357.457 253.892 357.281 253.572C357.105 253.252 356.861 253.004 356.549 252.828C356.245 252.644 355.889 252.552 355.481 252.552C355.081 252.552 354.725 252.644 354.413 252.828C354.101 253.004 353.857 253.256 353.681 253.584C353.505 253.904 353.417 254.272 353.417 254.688V254.88C353.417 255.304 353.513 255.684 353.705 256.02C353.905 256.348 354.181 256.604 354.533 256.788C354.885 256.972 355.289 257.064 355.745 257.064C356.121 257.064 356.461 257 356.765 256.872C357.077 256.744 357.349 256.552 357.581 256.296L358.217 257.04C357.929 257.376 357.569 257.632 357.137 257.808C356.713 257.984 356.237 258.072 355.709 258.072ZM360.225 258V251.64H361.329V253.368L361.221 252.936C361.397 252.496 361.693 252.16 362.109 251.928C362.525 251.696 363.037 251.58 363.645 251.58V252.696C363.597 252.688 363.549 252.684 363.501 252.684C363.461 252.684 363.421 252.684 363.381 252.684C362.765 252.684 362.277 252.868 361.917 253.236C361.557 253.604 361.377 254.136 361.377 254.832V258H360.225ZM368.544 258V256.656L368.484 256.404V254.112C368.484 253.624 368.34 253.248 368.052 252.984C367.772 252.712 367.348 252.576 366.78 252.576C366.404 252.576 366.036 252.64 365.676 252.768C365.316 252.888 365.012 253.052 364.764 253.26L364.284 252.396C364.612 252.132 365.004 251.932 365.46 251.796C365.924 251.652 366.408 251.58 366.912 251.58C367.784 251.58 368.456 251.792 368.928 252.216C369.4 252.64 369.636 253.288 369.636 254.16V258H368.544ZM366.456 258.072C365.984 258.072 365.568 257.992 365.208 257.832C364.856 257.672 364.584 257.452 364.392 257.172C364.2 256.884 364.104 256.56 364.104 256.2C364.104 255.856 364.184 255.544 364.344 255.264C364.512 254.984 364.78 254.76 365.148 254.592C365.524 254.424 366.028 254.34 366.66 254.34H368.676V255.168H366.708C366.132 255.168 365.744 255.264 365.544 255.456C365.344 255.648 365.244 255.88 365.244 256.152C365.244 256.464 365.368 256.716 365.616 256.908C365.864 257.092 366.208 257.184 366.648 257.184C367.08 257.184 367.456 257.088 367.776 256.896C368.104 256.704 368.34 256.424 368.484 256.056L368.712 256.848C368.56 257.224 368.292 257.524 367.908 257.748C367.524 257.964 367.04 258.072 366.456 258.072ZM373.952 258.072C373.312 258.072 372.816 257.9 372.464 257.556C372.112 257.212 371.936 256.72 371.936 256.08V250.248H373.088V256.032C373.088 256.376 373.172 256.64 373.34 256.824C373.516 257.008 373.764 257.1 374.084 257.1C374.444 257.1 374.744 257 374.984 256.8L375.344 257.628C375.168 257.78 374.956 257.892 374.708 257.964C374.468 258.036 374.216 258.072 373.952 258.072ZM370.856 252.588V251.64H374.912V252.588H370.856ZM379.358 258.072C378.678 258.072 378.078 257.932 377.558 257.652C377.046 257.372 376.646 256.988 376.358 256.5C376.078 256.012 375.938 255.452 375.938 254.82C375.938 254.188 376.074 253.628 376.346 253.14C376.626 252.652 377.006 252.272 377.486 252C377.974 251.72 378.522 251.58 379.13 251.58C379.746 251.58 380.29 251.716 380.762 251.988C381.234 252.26 381.602 252.644 381.866 253.14C382.138 253.628 382.274 254.2 382.274 254.856C382.274 254.904 382.27 254.96 382.262 255.024C382.262 255.088 382.258 255.148 382.25 255.204H376.838V254.376H381.65L381.182 254.664C381.19 254.256 381.106 253.892 380.93 253.572C380.754 253.252 380.51 253.004 380.198 252.828C379.894 252.644 379.538 252.552 379.13 252.552C378.73 252.552 378.374 252.644 378.062 252.828C377.75 253.004 377.506 253.256 377.33 253.584C377.154 253.904 377.066 254.272 377.066 254.688V254.88C377.066 255.304 377.162 255.684 377.354 256.02C377.554 256.348 377.83 256.604 378.182 256.788C378.534 256.972 378.938 257.064 379.394 257.064C379.77 257.064 380.11 257 380.414 256.872C380.726 256.744 380.998 256.552 381.23 256.296L381.866 257.04C381.578 257.376 381.218 257.632 380.786 257.808C380.362 257.984 379.886 258.072 379.358 258.072Z" fill="white"/>
<path d="M130.17 173V130.1H143.19C158.13 130.1 165.39 138.62 165.39 151.1V151.64C165.39 164.12 158.13 173 143.07 173H130.17ZM138.15 166.7H142.83C152.43 166.7 157.05 161.18 157.05 151.7V151.22C157.05 141.98 152.85 136.4 142.77 136.4H138.15V166.7ZM167.958 173L182.298 130.1H192.738L206.898 173H198.618L195.198 162.38H178.818L175.458 173H167.958ZM187.038 136.64L180.678 156.56H193.338L187.038 136.64ZM214.046 173V130.1H222.026V166.64H240.326V173H214.046ZM247.693 173V130.1H255.673V166.64H273.973V173H247.693ZM277.319 159.26V153.26H291.719V159.26H277.319ZM300.631 173V130.1H327.451V136.4H308.611V148.16H323.731V154.16H308.611V166.7H328.471V173H300.631Z" fill="black"/>
<rect opacity="0.15" x="103" y="210" width="250" height="5" fill="#666666"/>
<rect opacity="0.1" x="129" y="185" width="199" height="15" fill="black"/>
<rect opacity="0.05" x="129" y="103" width="199" height="15" fill="black"/>
<rect opacity="0.15" x="123" y="220" width="210" height="5" fill="#666666"/>
</g>
<defs>
<filter id="filter0_d_240_388" x="10" y="8" width="436" height="370" filterUnits="userSpaceOnUse" color-interpolation-filters="sRGB">
<feFlood flood-opacity="0" result="BackgroundImageFix"/>
<feColorMatrix in="SourceAlpha" type="matrix" values="0 0 0 0 0 0 0 0 0 0 0 0 0 0 0 0 0 0 127 0" result="hardAlpha"/>
<feOffset dy="-2"/>
<feGaussianBlur stdDeviation="15"/>
<feComposite in2="hardAlpha" operator="out"/>
<feColorMatrix type="matrix" values="0 0 0 0 0 0 0 0 0 0 0 0 0 0 0 0 0 0 0.1 0"/>
<feBlend mode="normal" in2="BackgroundImageFix" result="effect1_dropShadow_240_388"/>
<feBlend mode="normal" in="SourceGraphic" in2="effect1_dropShadow_240_388" result="shape"/>
</filter>
<filter id="filter1_d_240_388" x="40" y="233" width="376" height="68" filterUnits="userSpaceOnUse" color-interpolation-filters="sRGB">
<feFlood flood-opacity="0" result="BackgroundImageFix"/>
<feColorMatrix in="SourceAlpha" type="matrix" values="0 0 0 0 0 0 0 0 0 0 0 0 0 0 0 0 0 0 127 0" result="hardAlpha"/>
<feOffset dy="13"/>
<feGaussianBlur stdDeviation="10"/>
<feComposite in2="hardAlpha" operator="out"/>
<feColorMatrix type="matrix" values="0 0 0 0 0 0 0 0 0 0 0 0 0 0 0 0 0 0 0.05 0"/>
<feBlend mode="normal" in2="BackgroundImageFix" result="effect1_dropShadow_240_388"/>
<feBlend mode="normal" in="SourceGraphic" in2="effect1_dropShadow_240_388" result="shape"/>
</filter>
</defs>
</svg>
