<svg width="456" height="351" viewBox="0 0 456 351" fill="none" xmlns="http://www.w3.org/2000/svg">
<rect width="456" height="350" rx="10" fill="#EFEFEF"/>
<mask id="mask0_240_309" style="mask-type:alpha" maskUnits="userSpaceOnUse" x="0" y="1" width="456" height="350">
<rect y="1" width="456" height="350" rx="10" fill="black"/>
</mask>
<g mask="url(#mask0_240_309)">
<path d="M1103.36 -69.1353C585.415 663.125 3.84856 -649.586 -905.896 -437.498C-1815.64 -225.41 -1519.23 81.726 -1988.66 265.74C-2478.07 457.588 -2957.52 99.8688 -3317 483.409C-3896.7 1101.92 -2318.31 1812.52 -1486.35 1649.89C-1013.48 1557.46 -81.3645 1463.49 -464.977 957.816" stroke="white" stroke-width="1.18334"/>
<path d="M1114.25 -17.1664C596.312 715.094 14.7452 -597.617 -894.999 -385.529C-1804.74 -173.441 -1508.34 133.695 -1977.76 317.709C-2467.17 509.556 -2946.63 151.838 -3306.1 535.378C-3885.81 1153.89 -2307.42 1864.49 -1475.45 1701.86C-1002.59 1609.43 -70.4678 1515.46 -454.08 1009.78" stroke="white" stroke-width="1.18334"/>
<path d="M1124.71 32.6901C606.766 764.951 25.1991 -547.76 -884.546 -335.673C-1794.29 -123.585 -1497.88 183.551 -1967.31 367.565C-2456.72 559.413 -2936.17 201.694 -3295.65 585.234C-3875.35 1203.75 -2296.96 1914.35 -1465 1751.72C-992.132 1659.28 -60.0139 1565.31 -443.626 1059.64" stroke="white" stroke-width="1.18334"/>
<path d="M1134.72 80.434C616.777 812.695 35.2099 -500.017 -874.535 -287.929C-1784.28 -75.8411 -1487.87 231.295 -1957.3 415.309C-2446.71 607.157 -2926.16 249.438 -3285.64 632.978C-3865.34 1251.49 -2286.95 1962.09 -1454.99 1799.46C-982.121 1707.03 -50.0032 1613.06 -433.616 1107.39" stroke="white" stroke-width="1.18334"/>
<path d="M1144.29 126.065C626.345 858.326 44.7779 -454.385 -864.967 -242.297C-1774.71 -30.2097 -1478.31 276.927 -1947.73 460.941C-2437.14 652.788 -2916.59 295.07 -3276.07 678.61C-3855.78 1297.12 -2277.38 2007.72 -1445.42 1845.09C-972.553 1752.66 -40.4352 1658.69 -424.048 1153.02" stroke="white" stroke-width="1.18334"/>
<path d="M1153.41 169.584C635.47 901.845 53.9027 -410.866 -855.842 -198.779C-1765.59 13.3091 -1469.18 320.446 -1938.61 504.46C-2428.01 696.307 -2907.47 338.588 -3266.94 722.129C-3846.65 1340.64 -2268.26 2051.24 -1436.29 1888.61C-963.429 1796.18 -31.3103 1702.21 -414.923 1196.54" stroke="white" stroke-width="1.18334"/>
<path d="M1162.09 210.99C644.152 943.251 62.5847 -369.46 -847.16 -157.372C-1756.9 54.7153 -1460.5 361.852 -1929.92 545.866C-2419.33 737.713 -2898.79 379.994 -3258.26 763.535C-3837.97 1382.05 -2259.58 2092.65 -1427.61 1930.02C-954.747 1837.58 -22.6283 1743.61 -406.241 1237.94" stroke="white" stroke-width="1.18334"/>
<path d="M1170.33 250.284C652.39 982.545 70.8235 -330.166 -838.921 -118.079C-1748.67 94.009 -1452.26 401.145 -1921.68 585.159C-2411.09 777.007 -2890.55 419.288 -3250.02 802.828C-3829.73 1421.34 -2251.34 2131.94 -1419.37 1969.31C-946.508 1876.88 -14.3895 1782.91 -398.002 1277.24" stroke="white" stroke-width="1.18334"/>
<path d="M1178.13 287.465C660.186 1019.73 78.6196 -292.985 -831.125 -80.8976C-1740.87 131.19 -1444.46 438.327 -1913.89 622.341C-2403.3 814.188 -2882.75 456.469 -3242.23 840.01C-3821.93 1458.52 -2243.54 2169.12 -1411.58 2006.49C-938.712 1914.06 -6.59342 1820.09 -390.206 1314.42" stroke="white" stroke-width="1.18334"/>
<path d="M1185.48 322.534C667.54 1054.79 85.9729 -257.917 -823.772 -45.829C-1733.52 166.259 -1437.11 473.395 -1906.54 657.409C-2395.94 849.257 -2875.4 491.538 -3234.87 875.078C-3814.58 1493.59 -2236.19 2204.19 -1404.22 2041.56C-931.358 1949.13 0.759911 1855.16 -382.852 1349.48" stroke="white" stroke-width="1.18334"/>
<path d="M1192.39 355.49C674.45 1087.75 92.883 -224.961 -816.862 -12.8732C-1726.61 199.215 -1430.2 506.351 -1899.63 690.365C-2389.03 882.213 -2868.49 524.494 -3227.96 908.034C-3807.67 1526.55 -2229.28 2237.14 -1397.31 2074.52C-924.448 1982.08 7.67001 1888.11 -375.942 1382.44" stroke="white" stroke-width="1.18334"/>
<path d="M1198.86 386.333C680.917 1118.59 99.35 -194.117 -810.395 17.9704C-1720.14 230.058 -1423.73 537.195 -1893.16 721.208C-2382.57 913.056 -2862.02 555.337 -3221.5 938.878C-3801.2 1557.39 -2222.81 2267.99 -1390.85 2105.36C-917.981 2012.93 14.137 1918.96 -369.475 1413.28" stroke="white" stroke-width="1.18334"/>
<path d="M1204.88 415.064C686.941 1147.32 105.374 -165.387 -804.37 46.7012C-1714.12 258.789 -1417.71 565.925 -1887.13 749.939C-2376.54 941.787 -2856 584.068 -3215.47 967.608C-3795.18 1586.12 -2216.79 2296.72 -1384.82 2134.09C-911.957 2041.66 20.1612 1947.69 -363.451 1442.02" stroke="white" stroke-width="1.18334"/>
<path d="M1210.46 441.682C692.522 1173.94 110.956 -138.768 -798.789 73.3196C-1708.53 285.407 -1412.13 592.544 -1881.55 776.558C-2370.96 968.405 -2850.42 610.687 -3209.89 994.227C-3789.6 1612.74 -2211.21 2323.34 -1379.24 2160.71C-906.376 2068.28 25.7426 1974.3 -357.87 1468.63" stroke="white" stroke-width="1.18334"/>
<path d="M1215.6 466.188C697.661 1198.45 116.094 -114.262 -793.651 97.8253C-1703.4 309.913 -1406.99 617.049 -1876.41 801.063C-2365.82 992.911 -2845.28 635.192 -3204.75 1018.73C-3784.46 1637.25 -2206.07 2347.84 -1374.1 2185.21C-901.237 2092.78 30.8808 1998.81 -352.732 1493.14" stroke="white" stroke-width="1.18334"/>
<path d="M1220.3 488.581C702.356 1220.84 120.789 -91.8693 -788.955 120.218C-1698.7 332.306 -1402.29 639.443 -1871.72 823.457C-2361.13 1015.3 -2840.58 657.585 -3200.06 1041.13C-3779.76 1659.64 -2201.37 2370.24 -1369.41 2207.61C-896.542 2115.17 35.5763 2021.2 -348.036 1515.53" stroke="white" stroke-width="1.18334"/>
<path d="M1224.55 508.862C706.609 1241.12 125.042 -71.5887 -784.703 140.499C-1694.45 352.587 -1398.04 659.723 -1867.47 843.737C-2356.87 1035.58 -2836.33 677.866 -3195.81 1061.41C-3775.51 1679.92 -2197.12 2390.52 -1365.15 2227.89C-892.29 2135.45 39.8286 2041.48 -343.784 1535.81" stroke="white" stroke-width="1.18334"/>
<path d="M1228.36 527.03C710.418 1259.29 128.851 -53.4207 -780.893 158.667C-1690.64 370.755 -1394.23 677.891 -1863.66 861.905C-2353.07 1053.75 -2832.52 696.034 -3192 1079.57C-3771.7 1698.09 -2193.31 2408.69 -1361.34 2246.06C-888.48 2153.62 43.6381 2059.65 -339.974 1553.98" stroke="white" stroke-width="1.18334"/>
<path d="M1231.72 543.085C713.784 1275.35 132.218 -37.3651 -777.527 174.723C-1687.27 386.81 -1390.87 693.947 -1860.29 877.961C-2349.7 1069.81 -2829.15 712.089 -3188.63 1095.63C-3768.34 1714.14 -2189.95 2424.74 -1357.98 2262.11C-885.114 2169.68 47.0045 2075.71 -336.608 1570.04" stroke="white" stroke-width="1.18334"/>
<path d="M1234.65 557.028C716.708 1289.29 135.141 -23.4223 -774.604 188.665C-1684.35 400.753 -1387.94 707.89 -1857.37 891.904C-2346.78 1083.75 -2826.23 726.032 -3185.71 1109.57C-3765.41 1728.09 -2187.02 2438.68 -1355.05 2276.05C-882.19 2183.62 49.9281 2089.65 -333.684 1583.98" stroke="white" stroke-width="1.18334"/>
<g filter="url(#filter0_d_240_309)">
<path d="M40 51C40 45.4772 44.4772 41 50 41H406C411.523 41 416 45.4772 416 51V351H40V51Z" fill="white"/>
</g>
<circle cx="59" cy="60" r="4" fill="#FC4A4A"/>
<circle cx="72" cy="60" r="4" fill="#EAB734"/>
<circle cx="85" cy="60" r="4" fill="#2FC859"/>
<rect opacity="0.5" x="40" y="79" width="376" height="1" fill="#D9D9D9"/>
<g filter="url(#filter1_d_240_309)">
<rect x="60" y="90" width="336" height="28" rx="5" fill="white"/>
<rect x="60.5" y="90.5" width="335" height="27" rx="4.5" stroke="#E4E4E4"/>
</g>
<rect x="317" y="93" width="76" height="22" rx="5" fill="black"/>
<path fill-rule="evenodd" clip-rule="evenodd" d="M77.4347 103.217C77.4347 105.546 75.5465 107.435 73.2173 107.435C70.8882 107.435 69 105.546 69 103.217C69 100.888 70.8882 99 73.2173 99C75.5465 99 77.4347 100.888 77.4347 103.217ZM76.6364 107.158C75.7207 107.953 74.5252 108.435 73.2173 108.435C70.3359 108.435 68 106.099 68 103.217C68 100.336 70.3359 98 73.2173 98C76.0988 98 78.4347 100.336 78.4347 103.217C78.4347 104.431 78.0205 105.547 77.3258 106.433L80.1852 109.293L79.4781 110L76.6364 107.158Z" fill="#AEAEAE"/>
<path d="M89.708 108.096C89.068 108.096 88.456 108 87.872 107.808C87.288 107.608 86.828 107.352 86.492 107.04L86.936 106.104C87.256 106.384 87.664 106.616 88.16 106.8C88.656 106.984 89.172 107.076 89.708 107.076C90.196 107.076 90.592 107.02 90.896 106.908C91.2 106.796 91.424 106.644 91.568 106.452C91.712 106.252 91.784 106.028 91.784 105.78C91.784 105.492 91.688 105.26 91.496 105.084C91.312 104.908 91.068 104.768 90.764 104.664C90.468 104.552 90.14 104.456 89.78 104.376C89.42 104.296 89.056 104.204 88.688 104.1C88.328 103.988 87.996 103.848 87.692 103.68C87.396 103.512 87.156 103.288 86.972 103.008C86.788 102.72 86.696 102.352 86.696 101.904C86.696 101.472 86.808 101.076 87.032 100.716C87.264 100.348 87.616 100.056 88.088 99.84C88.568 99.616 89.176 99.504 89.912 99.504C90.4 99.504 90.884 99.568 91.364 99.696C91.844 99.824 92.26 100.008 92.612 100.248L92.216 101.208C91.856 100.968 91.476 100.796 91.076 100.692C90.676 100.58 90.288 100.524 89.912 100.524C89.44 100.524 89.052 100.584 88.748 100.704C88.444 100.824 88.22 100.984 88.076 101.184C87.94 101.384 87.872 101.608 87.872 101.856C87.872 102.152 87.964 102.388 88.148 102.564C88.34 102.74 88.584 102.88 88.88 102.984C89.184 103.088 89.516 103.184 89.876 103.272C90.236 103.352 90.596 103.444 90.956 103.548C91.324 103.652 91.656 103.788 91.952 103.956C92.256 104.124 92.5 104.348 92.684 104.628C92.868 104.908 92.96 105.268 92.96 105.708C92.96 106.132 92.844 106.528 92.612 106.896C92.38 107.256 92.02 107.548 91.532 107.772C91.052 107.988 90.444 108.096 89.708 108.096ZM97.3771 108.072C96.6971 108.072 96.0971 107.932 95.5771 107.652C95.0651 107.372 94.6651 106.988 94.3771 106.5C94.0971 106.012 93.9571 105.452 93.9571 104.82C93.9571 104.188 94.0931 103.628 94.3651 103.14C94.6451 102.652 95.0251 102.272 95.5051 102C95.9931 101.72 96.5411 101.58 97.1491 101.58C97.7651 101.58 98.3091 101.716 98.7811 101.988C99.2531 102.26 99.6211 102.644 99.8851 103.14C100.157 103.628 100.293 104.2 100.293 104.856C100.293 104.904 100.289 104.96 100.281 105.024C100.281 105.088 100.277 105.148 100.269 105.204H94.8571V104.376H99.6691L99.2011 104.664C99.2091 104.256 99.1251 103.892 98.9491 103.572C98.7731 103.252 98.5291 103.004 98.2171 102.828C97.9131 102.644 97.5571 102.552 97.1491 102.552C96.7491 102.552 96.3931 102.644 96.0811 102.828C95.7691 103.004 95.5251 103.256 95.3491 103.584C95.1731 103.904 95.0851 104.272 95.0851 104.688V104.88C95.0851 105.304 95.1811 105.684 95.3731 106.02C95.5731 106.348 95.8491 106.604 96.2011 106.788C96.5531 106.972 96.9571 107.064 97.4131 107.064C97.7891 107.064 98.1291 107 98.4331 106.872C98.7451 106.744 99.0171 106.552 99.2491 106.296L99.8851 107.04C99.5971 107.376 99.2371 107.632 98.8051 107.808C98.3811 107.984 97.9051 108.072 97.3771 108.072ZM105.665 108V106.656L105.605 106.404V104.112C105.605 103.624 105.461 103.248 105.173 102.984C104.893 102.712 104.469 102.576 103.901 102.576C103.525 102.576 103.157 102.64 102.797 102.768C102.437 102.888 102.133 103.052 101.885 103.26L101.405 102.396C101.733 102.132 102.125 101.932 102.581 101.796C103.045 101.652 103.529 101.58 104.033 101.58C104.905 101.58 105.577 101.792 106.049 102.216C106.521 102.64 106.757 103.288 106.757 104.16V108H105.665ZM103.577 108.072C103.105 108.072 102.689 107.992 102.329 107.832C101.977 107.672 101.705 107.452 101.513 107.172C101.321 106.884 101.225 106.56 101.225 106.2C101.225 105.856 101.305 105.544 101.465 105.264C101.633 104.984 101.901 104.76 102.269 104.592C102.645 104.424 103.149 104.34 103.781 104.34H105.797V105.168H103.829C103.253 105.168 102.865 105.264 102.665 105.456C102.465 105.648 102.365 105.88 102.365 106.152C102.365 106.464 102.489 106.716 102.737 106.908C102.985 107.092 103.329 107.184 103.769 107.184C104.201 107.184 104.577 107.088 104.897 106.896C105.225 106.704 105.461 106.424 105.605 106.056L105.833 106.848C105.681 107.224 105.413 107.524 105.029 107.748C104.645 107.964 104.161 108.072 103.577 108.072ZM108.889 108V101.64H109.993V103.368L109.885 102.936C110.061 102.496 110.357 102.16 110.773 101.928C111.189 101.696 111.701 101.58 112.309 101.58V102.696C112.261 102.688 112.213 102.684 112.165 102.684C112.125 102.684 112.085 102.684 112.045 102.684C111.429 102.684 110.941 102.868 110.581 103.236C110.221 103.604 110.041 104.136 110.041 104.832V108H108.889ZM116.442 108.072C115.794 108.072 115.214 107.932 114.702 107.652C114.198 107.372 113.802 106.988 113.514 106.5C113.226 106.012 113.082 105.452 113.082 104.82C113.082 104.188 113.226 103.628 113.514 103.14C113.802 102.652 114.198 102.272 114.702 102C115.214 101.72 115.794 101.58 116.442 101.58C117.018 101.58 117.53 101.696 117.978 101.928C118.434 102.152 118.786 102.488 119.034 102.936L118.158 103.5C117.95 103.188 117.694 102.96 117.39 102.816C117.094 102.664 116.774 102.588 116.43 102.588C116.014 102.588 115.642 102.68 115.314 102.864C114.986 103.048 114.726 103.308 114.534 103.644C114.342 103.972 114.246 104.364 114.246 104.82C114.246 105.276 114.342 105.672 114.534 106.008C114.726 106.344 114.986 106.604 115.314 106.788C115.642 106.972 116.014 107.064 116.43 107.064C116.774 107.064 117.094 106.992 117.39 106.848C117.694 106.696 117.95 106.464 118.158 106.152L119.034 106.704C118.786 107.144 118.434 107.484 117.978 107.724C117.53 107.956 117.018 108.072 116.442 108.072ZM123.84 101.58C124.36 101.58 124.816 101.68 125.208 101.88C125.608 102.08 125.92 102.384 126.144 102.792C126.368 103.2 126.48 103.716 126.48 104.34V108H125.328V104.472C125.328 103.856 125.176 103.392 124.872 103.08C124.576 102.768 124.156 102.612 123.612 102.612C123.204 102.612 122.848 102.692 122.544 102.852C122.24 103.012 122.004 103.248 121.836 103.56C121.676 103.872 121.596 104.26 121.596 104.724V108H120.444V99.096H121.596V103.356L121.368 102.9C121.576 102.484 121.896 102.16 122.328 101.928C122.76 101.696 123.264 101.58 123.84 101.58ZM132.002 108V101.076C132.002 100.452 132.182 99.956 132.542 99.588C132.91 99.212 133.43 99.024 134.102 99.024C134.35 99.024 134.586 99.056 134.81 99.12C135.042 99.176 135.238 99.268 135.398 99.396L135.05 100.272C134.93 100.176 134.794 100.104 134.642 100.056C134.49 100 134.33 99.972 134.162 99.972C133.826 99.972 133.57 100.068 133.394 100.26C133.218 100.444 133.13 100.72 133.13 101.088V101.94L133.154 102.468V108H132.002ZM130.922 102.588V101.64H134.978V102.588H130.922ZM138.695 108.072C138.055 108.072 137.487 107.932 136.991 107.652C136.495 107.372 136.103 106.988 135.815 106.5C135.527 106.004 135.383 105.444 135.383 104.82C135.383 104.188 135.527 103.628 135.815 103.14C136.103 102.652 136.495 102.272 136.991 102C137.487 101.72 138.055 101.58 138.695 101.58C139.327 101.58 139.891 101.72 140.387 102C140.891 102.272 141.283 102.652 141.563 103.14C141.851 103.62 141.995 104.18 141.995 104.82C141.995 105.452 141.851 106.012 141.563 106.5C141.283 106.988 140.891 107.372 140.387 107.652C139.891 107.932 139.327 108.072 138.695 108.072ZM138.695 107.064C139.103 107.064 139.467 106.972 139.787 106.788C140.115 106.604 140.371 106.344 140.555 106.008C140.739 105.664 140.831 105.268 140.831 104.82C140.831 104.364 140.739 103.972 140.555 103.644C140.371 103.308 140.115 103.048 139.787 102.864C139.467 102.68 139.103 102.588 138.695 102.588C138.287 102.588 137.923 102.68 137.603 102.864C137.283 103.048 137.027 103.308 136.835 103.644C136.643 103.972 136.547 104.364 136.547 104.82C136.547 105.268 136.643 105.664 136.835 106.008C137.027 106.344 137.283 106.604 137.603 106.788C137.923 106.972 138.287 107.064 138.695 107.064ZM143.588 108V101.64H144.692V103.368L144.584 102.936C144.76 102.496 145.056 102.16 145.472 101.928C145.888 101.696 146.4 101.58 147.008 101.58V102.696C146.96 102.688 146.912 102.684 146.864 102.684C146.824 102.684 146.784 102.684 146.744 102.684C146.128 102.684 145.64 102.868 145.28 103.236C144.92 103.604 144.74 104.136 144.74 104.832V108H143.588ZM155.681 108V106.656L155.621 106.404V104.112C155.621 103.624 155.477 103.248 155.189 102.984C154.909 102.712 154.485 102.576 153.917 102.576C153.541 102.576 153.173 102.64 152.813 102.768C152.453 102.888 152.149 103.052 151.901 103.26L151.421 102.396C151.749 102.132 152.141 101.932 152.597 101.796C153.061 101.652 153.545 101.58 154.049 101.58C154.921 101.58 155.593 101.792 156.065 102.216C156.537 102.64 156.773 103.288 156.773 104.16V108H155.681ZM153.593 108.072C153.121 108.072 152.705 107.992 152.345 107.832C151.993 107.672 151.721 107.452 151.529 107.172C151.337 106.884 151.241 106.56 151.241 106.2C151.241 105.856 151.321 105.544 151.481 105.264C151.649 104.984 151.917 104.76 152.285 104.592C152.661 104.424 153.165 104.34 153.797 104.34H155.813V105.168H153.845C153.269 105.168 152.881 105.264 152.681 105.456C152.481 105.648 152.381 105.88 152.381 106.152C152.381 106.464 152.505 106.716 152.753 106.908C153.001 107.092 153.345 107.184 153.785 107.184C154.217 107.184 154.593 107.088 154.913 106.896C155.241 106.704 155.477 106.424 155.621 106.056L155.849 106.848C155.697 107.224 155.429 107.524 155.045 107.748C154.661 107.964 154.177 108.072 153.593 108.072ZM162.301 101.58C162.821 101.58 163.277 101.68 163.669 101.88C164.069 102.08 164.381 102.384 164.605 102.792C164.829 103.2 164.941 103.716 164.941 104.34V108H163.789V104.472C163.789 103.856 163.637 103.392 163.333 103.08C163.037 102.768 162.617 102.612 162.073 102.612C161.665 102.612 161.309 102.692 161.005 102.852C160.701 103.012 160.465 103.248 160.297 103.56C160.137 103.872 160.057 104.26 160.057 104.724V108H158.905V101.64H160.009V103.356L159.829 102.9C160.037 102.484 160.357 102.16 160.789 101.928C161.221 101.696 161.725 101.58 162.301 101.58ZM170.295 108V101.64H171.447V108H170.295ZM170.871 100.416C170.647 100.416 170.459 100.344 170.307 100.2C170.163 100.056 170.091 99.88 170.091 99.672C170.091 99.456 170.163 99.276 170.307 99.132C170.459 98.988 170.647 98.916 170.871 98.916C171.095 98.916 171.279 98.988 171.423 99.132C171.575 99.268 171.651 99.44 171.651 99.648C171.651 99.864 171.579 100.048 171.435 100.2C171.291 100.344 171.103 100.416 170.871 100.416ZM181.603 101.58C182.115 101.58 182.567 101.68 182.959 101.88C183.351 102.08 183.655 102.384 183.871 102.792C184.095 103.2 184.207 103.716 184.207 104.34V108H183.055V104.472C183.055 103.856 182.911 103.392 182.623 103.08C182.335 102.768 181.931 102.612 181.411 102.612C181.027 102.612 180.691 102.692 180.403 102.852C180.115 103.012 179.891 103.248 179.731 103.56C179.579 103.872 179.503 104.26 179.503 104.724V108H178.351V104.472C178.351 103.856 178.207 103.392 177.919 103.08C177.639 102.768 177.235 102.612 176.707 102.612C176.331 102.612 175.999 102.692 175.711 102.852C175.423 103.012 175.199 103.248 175.039 103.56C174.879 103.872 174.799 104.26 174.799 104.724V108H173.647V101.64H174.751V103.332L174.571 102.9C174.771 102.484 175.079 102.16 175.495 101.928C175.911 101.696 176.395 101.58 176.947 101.58C177.555 101.58 178.079 101.732 178.519 102.036C178.959 102.332 179.247 102.784 179.383 103.392L178.915 103.2C179.107 102.712 179.443 102.32 179.923 102.024C180.403 101.728 180.963 101.58 181.603 101.58ZM190.274 108V106.656L190.214 106.404V104.112C190.214 103.624 190.07 103.248 189.782 102.984C189.502 102.712 189.078 102.576 188.51 102.576C188.134 102.576 187.766 102.64 187.406 102.768C187.046 102.888 186.742 103.052 186.494 103.26L186.014 102.396C186.342 102.132 186.734 101.932 187.19 101.796C187.654 101.652 188.138 101.58 188.642 101.58C189.514 101.58 190.186 101.792 190.658 102.216C191.13 102.64 191.366 103.288 191.366 104.16V108H190.274ZM188.186 108.072C187.714 108.072 187.298 107.992 186.938 107.832C186.586 107.672 186.314 107.452 186.122 107.172C185.93 106.884 185.834 106.56 185.834 106.2C185.834 105.856 185.914 105.544 186.074 105.264C186.242 104.984 186.51 104.76 186.878 104.592C187.254 104.424 187.758 104.34 188.39 104.34H190.406V105.168H188.438C187.862 105.168 187.474 105.264 187.274 105.456C187.074 105.648 186.974 105.88 186.974 106.152C186.974 106.464 187.098 106.716 187.346 106.908C187.594 107.092 187.938 107.184 188.378 107.184C188.81 107.184 189.186 107.088 189.506 106.896C189.834 106.704 190.07 106.424 190.214 106.056L190.442 106.848C190.29 107.224 190.022 107.524 189.638 107.748C189.254 107.964 188.77 108.072 188.186 108.072ZM196.282 110.4C195.698 110.4 195.13 110.316 194.578 110.148C194.034 109.988 193.59 109.756 193.246 109.452L193.798 108.564C194.094 108.82 194.458 109.02 194.89 109.164C195.322 109.316 195.774 109.392 196.246 109.392C196.998 109.392 197.55 109.216 197.902 108.864C198.254 108.512 198.43 107.976 198.43 107.256V105.912L198.55 104.652L198.49 103.38V101.64H199.582V107.136C199.582 108.256 199.302 109.08 198.742 109.608C198.182 110.136 197.362 110.4 196.282 110.4ZM196.138 107.736C195.522 107.736 194.97 107.608 194.482 107.352C194.002 107.088 193.618 106.724 193.33 106.26C193.05 105.796 192.91 105.26 192.91 104.652C192.91 104.036 193.05 103.5 193.33 103.044C193.618 102.58 194.002 102.22 194.482 101.964C194.97 101.708 195.522 101.58 196.138 101.58C196.682 101.58 197.178 101.692 197.626 101.916C198.074 102.132 198.43 102.468 198.694 102.924C198.966 103.38 199.102 103.956 199.102 104.652C199.102 105.34 198.966 105.912 198.694 106.368C198.43 106.824 198.074 107.168 197.626 107.4C197.178 107.624 196.682 107.736 196.138 107.736ZM196.27 106.728C196.694 106.728 197.07 106.64 197.398 106.464C197.726 106.288 197.982 106.044 198.166 105.732C198.358 105.42 198.454 105.06 198.454 104.652C198.454 104.244 198.358 103.884 198.166 103.572C197.982 103.26 197.726 103.02 197.398 102.852C197.07 102.676 196.694 102.588 196.27 102.588C195.846 102.588 195.466 102.676 195.13 102.852C194.802 103.02 194.542 103.26 194.35 103.572C194.166 103.884 194.074 104.244 194.074 104.652C194.074 105.06 194.166 105.42 194.35 105.732C194.542 106.044 194.802 106.288 195.13 106.464C195.466 106.64 195.846 106.728 196.27 106.728ZM204.615 108.072C203.935 108.072 203.335 107.932 202.815 107.652C202.303 107.372 201.903 106.988 201.615 106.5C201.335 106.012 201.195 105.452 201.195 104.82C201.195 104.188 201.331 103.628 201.603 103.14C201.883 102.652 202.263 102.272 202.743 102C203.231 101.72 203.779 101.58 204.387 101.58C205.003 101.58 205.547 101.716 206.019 101.988C206.491 102.26 206.859 102.644 207.123 103.14C207.395 103.628 207.531 104.2 207.531 104.856C207.531 104.904 207.527 104.96 207.519 105.024C207.519 105.088 207.515 105.148 207.507 105.204H202.095V104.376H206.907L206.439 104.664C206.447 104.256 206.363 103.892 206.187 103.572C206.011 103.252 205.767 103.004 205.455 102.828C205.151 102.644 204.795 102.552 204.387 102.552C203.987 102.552 203.631 102.644 203.319 102.828C203.007 103.004 202.763 103.256 202.587 103.584C202.411 103.904 202.323 104.272 202.323 104.688V104.88C202.323 105.304 202.419 105.684 202.611 106.02C202.811 106.348 203.087 106.604 203.439 106.788C203.791 106.972 204.195 107.064 204.651 107.064C205.027 107.064 205.367 107 205.671 106.872C205.983 106.744 206.255 106.552 206.487 106.296L207.123 107.04C206.835 107.376 206.475 107.632 206.043 107.808C205.619 107.984 205.143 108.072 204.615 108.072Z" fill="#AEAEAE"/>
<path d="M332.052 108.096C331.404 108.096 330.808 107.992 330.264 107.784C329.72 107.568 329.248 107.268 328.848 106.884C328.448 106.492 328.136 106.036 327.912 105.516C327.688 104.996 327.576 104.424 327.576 103.8C327.576 103.176 327.688 102.604 327.912 102.084C328.136 101.564 328.448 101.112 328.848 100.728C329.256 100.336 329.732 100.036 330.276 99.828C330.82 99.612 331.42 99.504 332.076 99.504C332.74 99.504 333.348 99.612 333.9 99.828C334.452 100.044 334.92 100.368 335.304 100.8L334.56 101.544C334.216 101.208 333.84 100.964 333.432 100.812C333.032 100.652 332.596 100.572 332.124 100.572C331.644 100.572 331.196 100.652 330.78 100.812C330.372 100.972 330.016 101.196 329.712 101.484C329.416 101.772 329.184 102.116 329.016 102.516C328.856 102.908 328.776 103.336 328.776 103.8C328.776 104.256 328.856 104.684 329.016 105.084C329.184 105.476 329.416 105.82 329.712 106.116C330.016 106.404 330.372 106.628 330.78 106.788C331.188 106.948 331.632 107.028 332.112 107.028C332.56 107.028 332.988 106.96 333.396 106.824C333.812 106.68 334.196 106.444 334.548 106.116L335.232 107.028C334.816 107.38 334.328 107.648 333.768 107.832C333.216 108.008 332.644 108.096 332.052 108.096ZM334.08 106.872V103.752H335.232V107.028L334.08 106.872ZM340.194 108.072C339.514 108.072 338.914 107.932 338.394 107.652C337.882 107.372 337.482 106.988 337.194 106.5C336.914 106.012 336.774 105.452 336.774 104.82C336.774 104.188 336.91 103.628 337.182 103.14C337.462 102.652 337.842 102.272 338.322 102C338.81 101.72 339.358 101.58 339.966 101.58C340.582 101.58 341.126 101.716 341.598 101.988C342.07 102.26 342.438 102.644 342.702 103.14C342.974 103.628 343.11 104.2 343.11 104.856C343.11 104.904 343.106 104.96 343.098 105.024C343.098 105.088 343.094 105.148 343.086 105.204H337.674V104.376H342.486L342.018 104.664C342.026 104.256 341.942 103.892 341.766 103.572C341.59 103.252 341.346 103.004 341.034 102.828C340.73 102.644 340.374 102.552 339.966 102.552C339.566 102.552 339.21 102.644 338.898 102.828C338.586 103.004 338.342 103.256 338.166 103.584C337.99 103.904 337.902 104.272 337.902 104.688V104.88C337.902 105.304 337.998 105.684 338.19 106.02C338.39 106.348 338.666 106.604 339.018 106.788C339.37 106.972 339.774 107.064 340.23 107.064C340.606 107.064 340.946 107 341.25 106.872C341.562 106.744 341.834 106.552 342.066 106.296L342.702 107.04C342.414 107.376 342.054 107.632 341.622 107.808C341.198 107.984 340.722 108.072 340.194 108.072ZM348.105 101.58C348.625 101.58 349.081 101.68 349.473 101.88C349.873 102.08 350.185 102.384 350.409 102.792C350.633 103.2 350.745 103.716 350.745 104.34V108H349.593V104.472C349.593 103.856 349.441 103.392 349.137 103.08C348.841 102.768 348.421 102.612 347.877 102.612C347.469 102.612 347.113 102.692 346.809 102.852C346.505 103.012 346.269 103.248 346.101 103.56C345.941 103.872 345.861 104.26 345.861 104.724V108H344.709V101.64H345.813V103.356L345.633 102.9C345.841 102.484 346.161 102.16 346.593 101.928C347.025 101.696 347.529 101.58 348.105 101.58ZM355.709 108.072C355.029 108.072 354.429 107.932 353.909 107.652C353.397 107.372 352.997 106.988 352.709 106.5C352.429 106.012 352.289 105.452 352.289 104.82C352.289 104.188 352.425 103.628 352.697 103.14C352.977 102.652 353.357 102.272 353.837 102C354.325 101.72 354.873 101.58 355.481 101.58C356.097 101.58 356.641 101.716 357.113 101.988C357.585 102.26 357.953 102.644 358.217 103.14C358.489 103.628 358.625 104.2 358.625 104.856C358.625 104.904 358.621 104.96 358.613 105.024C358.613 105.088 358.609 105.148 358.601 105.204H353.189V104.376H358.001L357.533 104.664C357.541 104.256 357.457 103.892 357.281 103.572C357.105 103.252 356.861 103.004 356.549 102.828C356.245 102.644 355.889 102.552 355.481 102.552C355.081 102.552 354.725 102.644 354.413 102.828C354.101 103.004 353.857 103.256 353.681 103.584C353.505 103.904 353.417 104.272 353.417 104.688V104.88C353.417 105.304 353.513 105.684 353.705 106.02C353.905 106.348 354.181 106.604 354.533 106.788C354.885 106.972 355.289 107.064 355.745 107.064C356.121 107.064 356.461 107 356.765 106.872C357.077 106.744 357.349 106.552 357.581 106.296L358.217 107.04C357.929 107.376 357.569 107.632 357.137 107.808C356.713 107.984 356.237 108.072 355.709 108.072ZM360.225 108V101.64H361.329V103.368L361.221 102.936C361.397 102.496 361.693 102.16 362.109 101.928C362.525 101.696 363.037 101.58 363.645 101.58V102.696C363.597 102.688 363.549 102.684 363.501 102.684C363.461 102.684 363.421 102.684 363.381 102.684C362.765 102.684 362.277 102.868 361.917 103.236C361.557 103.604 361.377 104.136 361.377 104.832V108H360.225ZM368.544 108V106.656L368.484 106.404V104.112C368.484 103.624 368.34 103.248 368.052 102.984C367.772 102.712 367.348 102.576 366.78 102.576C366.404 102.576 366.036 102.64 365.676 102.768C365.316 102.888 365.012 103.052 364.764 103.26L364.284 102.396C364.612 102.132 365.004 101.932 365.46 101.796C365.924 101.652 366.408 101.58 366.912 101.58C367.784 101.58 368.456 101.792 368.928 102.216C369.4 102.64 369.636 103.288 369.636 104.16V108H368.544ZM366.456 108.072C365.984 108.072 365.568 107.992 365.208 107.832C364.856 107.672 364.584 107.452 364.392 107.172C364.2 106.884 364.104 106.56 364.104 106.2C364.104 105.856 364.184 105.544 364.344 105.264C364.512 104.984 364.78 104.76 365.148 104.592C365.524 104.424 366.028 104.34 366.66 104.34H368.676V105.168H366.708C366.132 105.168 365.744 105.264 365.544 105.456C365.344 105.648 365.244 105.88 365.244 106.152C365.244 106.464 365.368 106.716 365.616 106.908C365.864 107.092 366.208 107.184 366.648 107.184C367.08 107.184 367.456 107.088 367.776 106.896C368.104 106.704 368.34 106.424 368.484 106.056L368.712 106.848C368.56 107.224 368.292 107.524 367.908 107.748C367.524 107.964 367.04 108.072 366.456 108.072ZM373.952 108.072C373.312 108.072 372.816 107.9 372.464 107.556C372.112 107.212 371.936 106.72 371.936 106.08V100.248H373.088V106.032C373.088 106.376 373.172 106.64 373.34 106.824C373.516 107.008 373.764 107.1 374.084 107.1C374.444 107.1 374.744 107 374.984 106.8L375.344 107.628C375.168 107.78 374.956 107.892 374.708 107.964C374.468 108.036 374.216 108.072 373.952 108.072ZM370.856 102.588V101.64H374.912V102.588H370.856ZM379.358 108.072C378.678 108.072 378.078 107.932 377.558 107.652C377.046 107.372 376.646 106.988 376.358 106.5C376.078 106.012 375.938 105.452 375.938 104.82C375.938 104.188 376.074 103.628 376.346 103.14C376.626 102.652 377.006 102.272 377.486 102C377.974 101.72 378.522 101.58 379.13 101.58C379.746 101.58 380.29 101.716 380.762 101.988C381.234 102.26 381.602 102.644 381.866 103.14C382.138 103.628 382.274 104.2 382.274 104.856C382.274 104.904 382.27 104.96 382.262 105.024C382.262 105.088 382.258 105.148 382.25 105.204H376.838V104.376H381.65L381.182 104.664C381.19 104.256 381.106 103.892 380.93 103.572C380.754 103.252 380.51 103.004 380.198 102.828C379.894 102.644 379.538 102.552 379.13 102.552C378.73 102.552 378.374 102.644 378.062 102.828C377.75 103.004 377.506 103.256 377.33 103.584C377.154 103.904 377.066 104.272 377.066 104.688V104.88C377.066 105.304 377.162 105.684 377.354 106.02C377.554 106.348 377.83 106.604 378.182 106.788C378.534 106.972 378.938 107.064 379.394 107.064C379.77 107.064 380.11 107 380.414 106.872C380.726 106.744 380.998 106.552 381.23 106.296L381.866 107.04C381.578 107.376 381.218 107.632 380.786 107.808C380.362 107.984 379.886 108.072 379.358 108.072Z" fill="white"/>
<path opacity="0.1" fill-rule="evenodd" clip-rule="evenodd" d="M110.034 172.93L108.914 172.434C108.829 172.396 108.829 172.276 108.914 172.238L110.015 171.759C110.282 171.641 110.492 171.431 110.609 171.164L111.089 170.063C111.127 169.979 111.247 169.979 111.285 170.063L111.765 171.164C111.882 171.431 112.092 171.641 112.359 171.759L113.46 172.238C113.544 172.276 113.544 172.396 113.46 172.434L112.359 172.914C112.092 173.031 111.882 173.241 111.765 173.508L111.285 174.607C111.247 174.694 111.127 174.691 111.089 174.607L110.625 173.527C110.511 173.26 110.298 173.048 110.034 172.93ZM106.423 180.332L105.712 178.681L105.717 178.684C105.54 178.278 105.218 177.95 104.812 177.771L103.098 177.013C102.967 176.956 102.967 176.77 103.098 176.713L104.782 175.977C105.188 175.8 105.513 175.476 105.69 175.07L106.423 173.388C106.48 173.257 106.666 173.257 106.723 173.388L107.456 175.07C107.633 175.476 107.957 175.8 108.363 175.977L110.045 176.71C110.176 176.768 110.176 176.953 110.045 177.01L108.363 177.743C107.957 177.92 107.633 178.245 107.456 178.651L106.723 180.332C106.666 180.463 106.48 180.463 106.423 180.332ZM121.393 173.157H115.24C114.863 173.157 114.558 173.462 114.558 173.838C114.558 174.214 114.863 174.519 115.24 174.519H121.393C122.421 174.519 123.255 175.353 123.255 176.381V185.265L121.508 183.851C121.453 183.807 121.396 183.764 121.339 183.72L121.339 183.72C121.227 183.638 121.11 183.559 120.99 183.486C120.93 183.447 120.867 183.412 120.807 183.379L120.807 183.379C120.731 183.338 120.655 183.298 120.578 183.259C120.404 183.172 120.224 183.101 120.042 183.039C119.979 183.017 119.919 182.998 119.856 182.979C119.137 182.763 118.376 182.714 117.632 182.837C117.605 182.842 117.579 182.847 117.552 182.852C117.525 182.857 117.499 182.862 117.472 182.867C117.311 182.897 117.153 182.938 116.997 182.987C116.842 183.036 116.687 183.093 116.531 183.159C116.43 183.202 116.33 183.249 116.232 183.298C116.131 183.349 116.033 183.404 115.937 183.461L113.106 185.159C113.037 185.2 112.967 185.238 112.896 185.276C112.326 185.568 111.686 185.696 111.048 185.65C110.89 185.636 110.735 185.614 110.579 185.581C110.546 185.579 110.514 185.571 110.481 185.56C110.418 185.546 110.358 185.53 110.296 185.511L109.846 185.377L109.012 185.129C108.783 185.061 108.549 185.009 108.317 184.976C107.709 184.886 107.096 184.914 106.502 185.055C106.319 185.096 106.14 185.151 105.962 185.216C105.785 185.279 105.611 185.355 105.439 185.44L105.137 185.592V182.605C105.137 182.229 104.831 181.924 104.455 181.924C104.079 181.924 103.774 182.229 103.774 182.605V186.693C103.774 186.693 103.774 186.723 103.777 186.737V190.776C103.777 192.553 105.221 194 107.001 194H121.396C123.173 194 124.617 192.553 124.617 190.776V176.381C124.617 174.601 123.173 173.157 121.393 173.157ZM113.522 181.338C113.522 182.596 112.502 183.616 111.244 183.616C109.986 183.616 108.966 182.596 108.966 181.338C108.966 180.08 109.986 179.06 111.244 179.06C112.502 179.06 113.522 180.08 113.522 181.338Z" fill="black"/>
<path opacity="0.1" fill-rule="evenodd" clip-rule="evenodd" d="M224.034 172.93L222.914 172.434C222.829 172.396 222.829 172.276 222.914 172.238L224.015 171.759C224.282 171.641 224.492 171.431 224.609 171.164L225.089 170.063C225.127 169.979 225.247 169.979 225.285 170.063L225.765 171.164C225.882 171.431 226.092 171.641 226.359 171.759L227.46 172.238C227.544 172.276 227.544 172.396 227.46 172.434L226.359 172.914C226.092 173.031 225.882 173.241 225.765 173.508L225.285 174.607C225.247 174.694 225.127 174.691 225.089 174.607L224.625 173.527C224.511 173.26 224.298 173.048 224.034 172.93ZM220.423 180.332L219.712 178.681L219.717 178.684C219.54 178.278 219.218 177.95 218.812 177.771L217.098 177.013C216.967 176.956 216.967 176.77 217.098 176.713L218.782 175.977C219.188 175.8 219.513 175.476 219.69 175.07L220.423 173.388C220.48 173.257 220.666 173.257 220.723 173.388L221.456 175.07C221.633 175.476 221.957 175.8 222.363 175.977L224.045 176.71C224.176 176.768 224.176 176.953 224.045 177.01L222.363 177.743C221.957 177.92 221.633 178.245 221.456 178.651L220.723 180.332C220.666 180.463 220.48 180.463 220.423 180.332ZM235.393 173.157H229.24C228.863 173.157 228.558 173.462 228.558 173.838C228.558 174.214 228.863 174.519 229.24 174.519H235.393C236.421 174.519 237.255 175.353 237.255 176.381V185.265L235.508 183.851C235.453 183.807 235.396 183.764 235.339 183.72L235.339 183.72C235.227 183.638 235.11 183.559 234.99 183.486C234.93 183.447 234.867 183.412 234.807 183.379L234.807 183.379C234.731 183.338 234.655 183.298 234.578 183.259C234.404 183.172 234.224 183.101 234.042 183.039C233.979 183.017 233.919 182.998 233.856 182.979C233.137 182.763 232.376 182.714 231.632 182.837C231.605 182.842 231.579 182.847 231.552 182.852C231.525 182.857 231.499 182.862 231.472 182.867C231.311 182.897 231.153 182.938 230.997 182.987C230.842 183.036 230.687 183.093 230.531 183.159C230.43 183.202 230.33 183.249 230.232 183.298C230.131 183.349 230.033 183.404 229.937 183.461L227.106 185.159C227.037 185.2 226.967 185.238 226.896 185.276C226.326 185.568 225.686 185.696 225.048 185.65C224.89 185.636 224.735 185.614 224.579 185.581C224.546 185.579 224.514 185.571 224.481 185.56C224.418 185.546 224.358 185.53 224.296 185.511L223.846 185.377L223.012 185.129C222.783 185.061 222.549 185.009 222.317 184.976C221.709 184.886 221.096 184.914 220.502 185.055C220.319 185.096 220.14 185.151 219.962 185.216C219.785 185.279 219.611 185.355 219.439 185.44L219.137 185.592V182.605C219.137 182.229 218.831 181.924 218.455 181.924C218.079 181.924 217.774 182.229 217.774 182.605V186.693C217.774 186.693 217.774 186.723 217.777 186.737V190.776C217.777 192.553 219.221 194 221.001 194H235.396C237.173 194 238.617 192.553 238.617 190.776V176.381C238.617 174.601 237.173 173.157 235.393 173.157ZM227.522 181.338C227.522 182.596 226.502 183.616 225.244 183.616C223.986 183.616 222.966 182.596 222.966 181.338C222.966 180.08 223.986 179.06 225.244 179.06C226.502 179.06 227.522 180.08 227.522 181.338Z" fill="black"/>
<path opacity="0.1" fill-rule="evenodd" clip-rule="evenodd" d="M338.034 172.93L336.914 172.434C336.829 172.396 336.829 172.276 336.914 172.238L338.015 171.759C338.282 171.641 338.492 171.431 338.609 171.164L339.089 170.063C339.127 169.979 339.247 169.979 339.285 170.063L339.765 171.164C339.882 171.431 340.092 171.641 340.359 171.759L341.46 172.238C341.544 172.276 341.544 172.396 341.46 172.434L340.359 172.914C340.092 173.031 339.882 173.241 339.765 173.508L339.285 174.607C339.247 174.694 339.127 174.691 339.089 174.607L338.625 173.527C338.511 173.26 338.298 173.048 338.034 172.93ZM334.423 180.332L333.712 178.681L333.717 178.684C333.54 178.278 333.218 177.95 332.812 177.771L331.098 177.013C330.967 176.956 330.967 176.77 331.098 176.713L332.782 175.977C333.188 175.8 333.513 175.476 333.69 175.07L334.423 173.388C334.48 173.257 334.666 173.257 334.723 173.388L335.456 175.07C335.633 175.476 335.957 175.8 336.363 175.977L338.045 176.71C338.176 176.768 338.176 176.953 338.045 177.01L336.363 177.743C335.957 177.92 335.633 178.245 335.456 178.651L334.723 180.332C334.666 180.463 334.48 180.463 334.423 180.332ZM349.393 173.157H343.24C342.863 173.157 342.558 173.462 342.558 173.838C342.558 174.214 342.863 174.519 343.24 174.519H349.393C350.421 174.519 351.255 175.353 351.255 176.381V185.265L349.508 183.851C349.453 183.807 349.396 183.764 349.339 183.72L349.339 183.72C349.227 183.638 349.11 183.559 348.99 183.486C348.93 183.447 348.867 183.412 348.807 183.379L348.807 183.379C348.731 183.338 348.655 183.298 348.578 183.259C348.404 183.172 348.224 183.101 348.042 183.039C347.979 183.017 347.919 182.998 347.856 182.979C347.137 182.763 346.376 182.714 345.632 182.837C345.605 182.842 345.579 182.847 345.552 182.852C345.525 182.857 345.499 182.862 345.472 182.867C345.311 182.897 345.153 182.938 344.997 182.987C344.842 183.036 344.687 183.093 344.531 183.159C344.43 183.202 344.33 183.249 344.232 183.298C344.131 183.349 344.033 183.404 343.937 183.461L341.106 185.159C341.037 185.2 340.967 185.238 340.896 185.276C340.326 185.568 339.686 185.696 339.048 185.65C338.89 185.636 338.735 185.614 338.579 185.581C338.546 185.579 338.514 185.571 338.481 185.56C338.418 185.546 338.358 185.53 338.296 185.511L337.846 185.377L337.012 185.129C336.783 185.061 336.549 185.009 336.317 184.976C335.709 184.886 335.096 184.914 334.502 185.055C334.319 185.096 334.14 185.151 333.962 185.216C333.785 185.279 333.611 185.355 333.439 185.44L333.137 185.592V182.605C333.137 182.229 332.831 181.924 332.455 181.924C332.079 181.924 331.774 182.229 331.774 182.605V186.693C331.774 186.693 331.774 186.723 331.777 186.737V190.776C331.777 192.553 333.221 194 335.001 194H349.396C351.173 194 352.617 192.553 352.617 190.776V176.381C352.617 174.601 351.173 173.157 349.393 173.157ZM341.522 181.338C341.522 182.596 340.502 183.616 339.244 183.616C337.986 183.616 336.966 182.596 336.966 181.338C336.966 180.08 337.986 179.06 339.244 179.06C340.502 179.06 341.522 180.08 341.522 181.338Z" fill="black"/>
<path opacity="0.1" fill-rule="evenodd" clip-rule="evenodd" d="M110.034 284.93L108.914 284.434C108.829 284.396 108.829 284.276 108.914 284.238L110.015 283.759C110.282 283.641 110.492 283.431 110.609 283.164L111.089 282.063C111.127 281.979 111.247 281.979 111.285 282.063L111.765 283.164C111.882 283.431 112.092 283.641 112.359 283.759L113.46 284.238C113.544 284.276 113.544 284.396 113.46 284.434L112.359 284.914C112.092 285.031 111.882 285.241 111.765 285.508L111.285 286.607C111.247 286.694 111.127 286.691 111.089 286.607L110.625 285.527C110.511 285.26 110.298 285.048 110.034 284.93ZM106.423 292.332L105.712 290.681L105.717 290.684C105.54 290.278 105.218 289.95 104.812 289.771L103.098 289.013C102.967 288.956 102.967 288.77 103.098 288.713L104.782 287.977C105.188 287.8 105.513 287.476 105.69 287.07L106.423 285.388C106.48 285.257 106.666 285.257 106.723 285.388L107.456 287.07C107.633 287.476 107.957 287.8 108.363 287.977L110.045 288.71C110.176 288.768 110.176 288.953 110.045 289.01L108.363 289.743C107.957 289.92 107.633 290.245 107.456 290.651L106.723 292.332C106.666 292.463 106.48 292.463 106.423 292.332ZM121.393 285.157H115.24C114.863 285.157 114.558 285.462 114.558 285.838C114.558 286.214 114.863 286.519 115.24 286.519H121.393C122.421 286.519 123.255 287.353 123.255 288.381V297.265L121.508 295.851C121.453 295.807 121.396 295.764 121.339 295.72L121.339 295.72C121.227 295.638 121.11 295.559 120.99 295.486C120.93 295.447 120.867 295.412 120.807 295.379L120.807 295.379C120.731 295.338 120.655 295.298 120.578 295.259C120.404 295.172 120.224 295.101 120.042 295.039C119.979 295.017 119.919 294.998 119.856 294.979C119.137 294.763 118.376 294.714 117.632 294.837C117.605 294.842 117.579 294.847 117.552 294.852C117.525 294.857 117.499 294.862 117.472 294.867C117.311 294.897 117.153 294.938 116.997 294.987C116.842 295.036 116.687 295.093 116.531 295.159C116.43 295.202 116.33 295.249 116.232 295.298C116.131 295.349 116.033 295.404 115.937 295.461L113.106 297.159C113.037 297.2 112.967 297.238 112.896 297.276C112.326 297.568 111.686 297.696 111.048 297.65C110.89 297.636 110.735 297.614 110.579 297.581C110.546 297.579 110.514 297.571 110.481 297.56C110.418 297.546 110.358 297.53 110.296 297.511L109.846 297.377L109.012 297.129C108.783 297.061 108.549 297.009 108.317 296.976C107.709 296.886 107.096 296.914 106.502 297.055C106.319 297.096 106.14 297.151 105.962 297.216C105.785 297.279 105.611 297.355 105.439 297.44L105.137 297.592V294.605C105.137 294.229 104.831 293.924 104.455 293.924C104.079 293.924 103.774 294.229 103.774 294.605V298.693C103.774 298.693 103.774 298.723 103.777 298.737V302.776C103.777 304.553 105.221 306 107.001 306H121.396C123.173 306 124.617 304.553 124.617 302.776V288.381C124.617 286.601 123.173 285.157 121.393 285.157ZM113.522 293.338C113.522 294.596 112.502 295.616 111.244 295.616C109.986 295.616 108.966 294.596 108.966 293.338C108.966 292.08 109.986 291.06 111.244 291.06C112.502 291.06 113.522 292.08 113.522 293.338Z" fill="black"/>
<path opacity="0.1" fill-rule="evenodd" clip-rule="evenodd" d="M224.034 284.93L222.914 284.434C222.829 284.396 222.829 284.276 222.914 284.238L224.015 283.759C224.282 283.641 224.492 283.431 224.609 283.164L225.089 282.063C225.127 281.979 225.247 281.979 225.285 282.063L225.765 283.164C225.882 283.431 226.092 283.641 226.359 283.759L227.46 284.238C227.544 284.276 227.544 284.396 227.46 284.434L226.359 284.914C226.092 285.031 225.882 285.241 225.765 285.508L225.285 286.607C225.247 286.694 225.127 286.691 225.089 286.607L224.625 285.527C224.511 285.26 224.298 285.048 224.034 284.93ZM220.423 292.332L219.712 290.681L219.717 290.684C219.54 290.278 219.218 289.95 218.812 289.771L217.098 289.013C216.967 288.956 216.967 288.77 217.098 288.713L218.782 287.977C219.188 287.8 219.513 287.476 219.69 287.07L220.423 285.388C220.48 285.257 220.666 285.257 220.723 285.388L221.456 287.07C221.633 287.476 221.957 287.8 222.363 287.977L224.045 288.71C224.176 288.768 224.176 288.953 224.045 289.01L222.363 289.743C221.957 289.92 221.633 290.245 221.456 290.651L220.723 292.332C220.666 292.463 220.48 292.463 220.423 292.332ZM235.393 285.157H229.24C228.863 285.157 228.558 285.462 228.558 285.838C228.558 286.214 228.863 286.519 229.24 286.519H235.393C236.421 286.519 237.255 287.353 237.255 288.381V297.265L235.508 295.851C235.453 295.807 235.396 295.764 235.339 295.72L235.339 295.72C235.227 295.638 235.11 295.559 234.99 295.486C234.93 295.447 234.867 295.412 234.807 295.379L234.807 295.379C234.731 295.338 234.655 295.298 234.578 295.259C234.404 295.172 234.224 295.101 234.042 295.039C233.979 295.017 233.919 294.998 233.856 294.979C233.137 294.763 232.376 294.714 231.632 294.837C231.605 294.842 231.579 294.847 231.552 294.852C231.525 294.857 231.499 294.862 231.472 294.867C231.311 294.897 231.153 294.938 230.997 294.987C230.842 295.036 230.687 295.093 230.531 295.159C230.43 295.202 230.33 295.249 230.232 295.298C230.131 295.349 230.033 295.404 229.937 295.461L227.106 297.159C227.037 297.2 226.967 297.238 226.896 297.276C226.326 297.568 225.686 297.696 225.048 297.65C224.89 297.636 224.735 297.614 224.579 297.581C224.546 297.579 224.514 297.571 224.481 297.56C224.418 297.546 224.358 297.53 224.296 297.511L223.846 297.377L223.012 297.129C222.783 297.061 222.549 297.009 222.317 296.976C221.709 296.886 221.096 296.914 220.502 297.055C220.319 297.096 220.14 297.151 219.962 297.216C219.785 297.279 219.611 297.355 219.439 297.44L219.137 297.592V294.605C219.137 294.229 218.831 293.924 218.455 293.924C218.079 293.924 217.774 294.229 217.774 294.605V298.693C217.774 298.693 217.774 298.723 217.777 298.737V302.776C217.777 304.553 219.221 306 221.001 306H235.396C237.173 306 238.617 304.553 238.617 302.776V288.381C238.617 286.601 237.173 285.157 235.393 285.157ZM227.522 293.338C227.522 294.596 226.502 295.616 225.244 295.616C223.986 295.616 222.966 294.596 222.966 293.338C222.966 292.08 223.986 291.06 225.244 291.06C226.502 291.06 227.522 292.08 227.522 293.338Z" fill="black"/>
<path opacity="0.1" fill-rule="evenodd" clip-rule="evenodd" d="M338.034 284.93L336.914 284.434C336.829 284.396 336.829 284.276 336.914 284.238L338.015 283.759C338.282 283.641 338.492 283.431 338.609 283.164L339.089 282.063C339.127 281.979 339.247 281.979 339.285 282.063L339.765 283.164C339.882 283.431 340.092 283.641 340.359 283.759L341.46 284.238C341.544 284.276 341.544 284.396 341.46 284.434L340.359 284.914C340.092 285.031 339.882 285.241 339.765 285.508L339.285 286.607C339.247 286.694 339.127 286.691 339.089 286.607L338.625 285.527C338.511 285.26 338.298 285.048 338.034 284.93ZM334.423 292.332L333.712 290.681L333.717 290.684C333.54 290.278 333.218 289.95 332.812 289.771L331.098 289.013C330.967 288.956 330.967 288.77 331.098 288.713L332.782 287.977C333.188 287.8 333.513 287.476 333.69 287.07L334.423 285.388C334.48 285.257 334.666 285.257 334.723 285.388L335.456 287.07C335.633 287.476 335.957 287.8 336.363 287.977L338.045 288.71C338.176 288.768 338.176 288.953 338.045 289.01L336.363 289.743C335.957 289.92 335.633 290.245 335.456 290.651L334.723 292.332C334.666 292.463 334.48 292.463 334.423 292.332ZM349.393 285.157H343.24C342.863 285.157 342.558 285.462 342.558 285.838C342.558 286.214 342.863 286.519 343.24 286.519H349.393C350.421 286.519 351.255 287.353 351.255 288.381V297.265L349.508 295.851C349.453 295.807 349.396 295.764 349.339 295.72L349.339 295.72C349.227 295.638 349.11 295.559 348.99 295.486C348.93 295.447 348.867 295.412 348.807 295.379L348.807 295.379C348.731 295.338 348.655 295.298 348.578 295.259C348.404 295.172 348.224 295.101 348.042 295.039C347.979 295.017 347.919 294.998 347.856 294.979C347.137 294.763 346.376 294.714 345.632 294.837C345.605 294.842 345.579 294.847 345.552 294.852C345.525 294.857 345.499 294.862 345.472 294.867C345.311 294.897 345.153 294.938 344.997 294.987C344.842 295.036 344.687 295.093 344.531 295.159C344.43 295.202 344.33 295.249 344.232 295.298C344.131 295.349 344.033 295.404 343.937 295.461L341.106 297.159C341.037 297.2 340.967 297.238 340.896 297.276C340.326 297.568 339.686 297.696 339.048 297.65C338.89 297.636 338.735 297.614 338.579 297.581C338.546 297.579 338.514 297.571 338.481 297.56C338.418 297.546 338.358 297.53 338.296 297.511L337.846 297.377L337.012 297.129C336.783 297.061 336.549 297.009 336.317 296.976C335.709 296.886 335.096 296.914 334.502 297.055C334.319 297.096 334.14 297.151 333.962 297.216C333.785 297.279 333.611 297.355 333.439 297.44L333.137 297.592V294.605C333.137 294.229 332.831 293.924 332.455 293.924C332.079 293.924 331.774 294.229 331.774 294.605V298.693C331.774 298.693 331.774 298.723 331.777 298.737V302.776C331.777 304.553 333.221 306 335.001 306H349.396C351.173 306 352.617 304.553 352.617 302.776V288.381C352.617 286.601 351.173 285.157 349.393 285.157ZM341.522 293.338C341.522 294.596 340.502 295.616 339.244 295.616C337.986 295.616 336.966 294.596 336.966 293.338C336.966 292.08 337.986 291.06 339.244 291.06C340.502 291.06 341.522 292.08 341.522 293.338Z" fill="black"/>
<rect opacity="0.15" x="60" y="128" width="108" height="108" rx="5" fill="#666666"/>
<rect opacity="0.15" x="174" y="128" width="108" height="108" rx="5" fill="#666666"/>
<rect opacity="0.15" x="288" y="128" width="108" height="108" rx="5" fill="#666666"/>
<rect opacity="0.15" x="60" y="242" width="108" height="108" rx="5" fill="#666666"/>
<rect opacity="0.15" x="174" y="242" width="108" height="108" rx="5" fill="#666666"/>
<rect opacity="0.15" x="288" y="242" width="108" height="108" rx="5" fill="#666666"/>
</g>
<defs>
<filter id="filter0_d_240_309" x="10" y="9" width="436" height="370" filterUnits="userSpaceOnUse" color-interpolation-filters="sRGB">
<feFlood flood-opacity="0" result="BackgroundImageFix"/>
<feColorMatrix in="SourceAlpha" type="matrix" values="0 0 0 0 0 0 0 0 0 0 0 0 0 0 0 0 0 0 127 0" result="hardAlpha"/>
<feOffset dy="-2"/>
<feGaussianBlur stdDeviation="15"/>
<feComposite in2="hardAlpha" operator="out"/>
<feColorMatrix type="matrix" values="0 0 0 0 0 0 0 0 0 0 0 0 0 0 0 0 0 0 0.1 0"/>
<feBlend mode="normal" in2="BackgroundImageFix" result="effect1_dropShadow_240_309"/>
<feBlend mode="normal" in="SourceGraphic" in2="effect1_dropShadow_240_309" result="shape"/>
</filter>
<filter id="filter1_d_240_309" x="40" y="83" width="376" height="68" filterUnits="userSpaceOnUse" color-interpolation-filters="sRGB">
<feFlood flood-opacity="0" result="BackgroundImageFix"/>
<feColorMatrix in="SourceAlpha" type="matrix" values="0 0 0 0 0 0 0 0 0 0 0 0 0 0 0 0 0 0 127 0" result="hardAlpha"/>
<feOffset dy="13"/>
<feGaussianBlur stdDeviation="10"/>
<feComposite in2="hardAlpha" operator="out"/>
<feColorMatrix type="matrix" values="0 0 0 0 0 0 0 0 0 0 0 0 0 0 0 0 0 0 0.05 0"/>
<feBlend mode="normal" in2="BackgroundImageFix" result="effect1_dropShadow_240_309"/>
<feBlend mode="normal" in="SourceGraphic" in2="effect1_dropShadow_240_309" result="shape"/>
</filter>
</defs>
</svg>
