<svg width="456" height="350" viewBox="0 0 456 350" fill="none" xmlns="http://www.w3.org/2000/svg">
<rect width="456" height="350" rx="10" fill="#EFEFEF"/>
<mask id="mask0_240_254" style="mask-type:alpha" maskUnits="userSpaceOnUse" x="0" y="0" width="456" height="350">
<rect width="456" height="350" rx="10" fill="black"/>
</mask>
<g mask="url(#mask0_240_254)">
<path d="M690.968 -542.563C614.676 351.108 -551.107 -486.973 -1228.53 156.235C-1905.95 799.442 -1494.89 914.41 -1806.71 1310.63C-2131.8 1723.72 -2726.34 1657.73 -2842.37 2170.43C-3029.49 2997.24 -1308.5 2811.63 -673.142 2250.43C-312.025 1931.47 444.454 1378.82 -142.274 1136.72" stroke="white" stroke-width="1.18334"/>
<path d="M726.659 -503.248C650.368 390.423 -515.415 -447.658 -1192.84 195.549C-1870.26 838.756 -1459.2 953.725 -1771.01 1349.95C-2096.1 1763.03 -2690.65 1697.05 -2806.68 2209.75C-2993.8 3036.55 -1272.81 2850.94 -637.45 2289.75C-276.334 1970.78 480.146 1418.14 -106.582 1176.04" stroke="white" stroke-width="1.18334"/>
<path d="M760.9 -465.532C684.609 428.139 -481.174 -409.942 -1158.6 233.265C-1836.02 876.472 -1424.96 991.44 -1736.77 1387.66C-2061.86 1800.75 -2656.41 1734.76 -2772.44 2247.46C-2959.56 3074.27 -1238.56 2888.66 -603.209 2327.46C-242.093 2008.5 514.387 1455.85 -72.3409 1213.75" stroke="white" stroke-width="1.18334"/>
<path d="M793.69 -429.414C717.399 464.257 -448.384 -373.824 -1125.81 269.383C-1803.23 912.59 -1392.17 1027.56 -1703.98 1423.78C-2029.07 1836.87 -2623.62 1770.88 -2739.65 2283.58C-2926.77 3110.39 -1205.77 2924.78 -570.419 2363.58C-209.303 2044.61 547.177 1491.97 -39.5509 1249.87" stroke="white" stroke-width="1.18334"/>
<path d="M825.03 -394.895C748.739 498.776 -417.045 -339.305 -1094.47 303.903C-1771.89 947.11 -1360.83 1062.08 -1672.64 1458.3C-1997.73 1871.39 -2592.28 1805.4 -2708.31 2318.1C-2895.43 3144.9 -1174.44 2959.3 -539.079 2398.1C-177.963 2079.13 578.516 1526.49 -8.21157 1284.39" stroke="white" stroke-width="1.18334"/>
<path d="M854.918 -361.973C778.627 531.698 -387.156 -306.383 -1064.58 336.825C-1742 980.032 -1330.94 1095 -1642.76 1491.22C-1967.85 1904.31 -2562.39 1838.32 -2678.42 2351.02C-2865.54 3177.83 -1144.55 2992.22 -509.191 2431.02C-148.075 2112.06 608.405 1559.41 21.6767 1317.31" stroke="white" stroke-width="1.18334"/>
<path d="M883.356 -330.649C807.064 563.022 -358.719 -275.059 -1036.14 368.148C-1713.56 1011.36 -1302.5 1126.32 -1614.32 1522.54C-1939.41 1935.63 -2533.95 1869.64 -2649.99 2382.35C-2837.1 3209.15 -1116.11 3023.54 -480.754 2462.34C-119.638 2143.38 636.842 1590.74 50.1142 1348.64" stroke="white" stroke-width="1.18334"/>
<path d="M910.342 -300.924C834.051 592.747 -331.733 -245.334 -1009.15 397.874C-1686.58 1041.08 -1275.52 1156.05 -1587.33 1552.27C-1912.42 1965.36 -2506.97 1899.37 -2623 2412.07C-2810.12 3238.88 -1089.12 3053.27 -453.767 2492.07C-92.6511 2173.1 663.829 1620.46 77.1006 1378.36" stroke="white" stroke-width="1.18334"/>
<path d="M935.878 -272.797C859.586 620.874 -306.197 -217.207 -983.619 426.001C-1661.04 1069.21 -1249.98 1184.18 -1561.8 1580.4C-1886.89 1993.49 -2481.43 1927.5 -2597.46 2440.2C-2784.58 3267 -1063.59 3081.39 -428.231 2520.2C-67.1154 2201.23 689.364 1648.59 102.636 1406.49" stroke="white" stroke-width="1.18334"/>
<path d="M959.963 -246.267C883.671 647.403 -282.112 -190.678 -959.534 452.53C-1636.96 1095.74 -1225.89 1210.71 -1537.71 1606.93C-1862.8 2020.02 -2457.35 1954.03 -2573.38 2466.73C-2760.49 3293.53 -1039.5 3107.92 -404.146 2546.73C-43.0304 2227.76 713.449 1675.12 126.721 1433.02" stroke="white" stroke-width="1.18334"/>
<path d="M982.596 -221.337C906.305 672.334 -259.478 -165.747 -936.9 477.461C-1614.32 1120.67 -1203.26 1235.64 -1515.08 1631.86C-1840.17 2044.95 -2434.71 1978.96 -2550.74 2491.66C-2737.86 3318.46 -1016.87 3132.85 -381.513 2571.66C-20.3966 2252.69 736.083 1700.05 149.355 1457.95" stroke="white" stroke-width="1.18334"/>
<path d="M1003.78 -198.004C927.488 695.667 -238.295 -142.414 -915.717 500.794C-1593.14 1144 -1182.08 1258.97 -1493.89 1655.19C-1818.98 2068.28 -2413.53 2002.29 -2529.56 2514.99C-2716.68 3341.8 -995.686 3156.19 -360.33 2594.99C0.786244 2276.02 757.266 1723.38 170.538 1481.28" stroke="white" stroke-width="1.18334"/>
<path d="M1023.51 -176.269C947.22 717.402 -218.563 -120.679 -895.985 522.528C-1573.41 1165.74 -1162.35 1280.7 -1474.16 1676.93C-1799.25 2090.01 -2393.8 2024.02 -2509.83 2536.73C-2696.95 3363.53 -975.954 3177.92 -340.598 2616.73C20.5184 2297.76 776.998 1745.12 190.27 1503.02" stroke="white" stroke-width="1.18334"/>
<path d="M1041.79 -156.132C965.502 737.539 -200.282 -100.542 -877.704 542.665C-1555.13 1185.87 -1144.06 1300.84 -1455.88 1697.06C-1780.97 2110.15 -2375.52 2044.16 -2491.55 2556.86C-2678.66 3383.67 -957.672 3198.06 -322.316 2636.86C38.7997 2317.9 795.279 1765.25 208.551 1523.15" stroke="white" stroke-width="1.18334"/>
<path d="M1058.62 -137.594C982.332 756.077 -183.451 -82.004 -860.874 561.203C-1538.3 1204.41 -1127.23 1319.38 -1439.05 1715.6C-1764.14 2128.69 -2358.69 2062.7 -2474.72 2575.4C-2661.83 3402.21 -940.842 3216.6 -305.486 2655.4C55.63 2336.43 812.11 1783.79 225.382 1541.69" stroke="white" stroke-width="1.18334"/>
<path d="M1074 -120.654C997.711 773.017 -168.072 -65.0638 -845.494 578.144C-1522.92 1221.35 -1111.85 1336.32 -1423.67 1732.54C-1748.76 2145.63 -2343.31 2079.64 -2459.34 2592.34C-2646.45 3419.15 -925.463 3233.54 -290.107 2672.34C71.0095 2353.37 827.489 1800.73 240.761 1558.63" stroke="white" stroke-width="1.18334"/>
<path d="M1087.93 -105.312C1011.64 788.359 -154.143 -49.7216 -831.566 593.486C-1508.99 1236.69 -1097.93 1351.66 -1409.74 1747.88C-1734.83 2160.97 -2329.38 2094.98 -2445.41 2607.68C-2632.53 3434.49 -911.534 3248.88 -276.178 2687.68C84.938 2368.72 841.418 1816.07 254.69 1573.98" stroke="white" stroke-width="1.18334"/>
<path d="M1100.41 -91.5677C1024.12 802.103 -141.666 -35.9777 -819.088 607.23C-1496.51 1250.44 -1085.45 1365.41 -1397.26 1761.63C-1722.36 2174.72 -2316.9 2108.73 -2432.93 2621.43C-2620.05 3448.23 -899.057 3262.62 -263.7 2701.43C97.4156 2382.46 853.895 1829.82 267.167 1587.72" stroke="white" stroke-width="1.18334"/>
<path d="M1111.44 -79.4217C1035.14 814.249 -130.639 -23.8317 -808.061 619.376C-1485.48 1262.58 -1074.42 1377.55 -1386.24 1773.77C-1711.33 2186.86 -2305.87 2120.87 -2421.91 2633.57C-2609.02 3460.38 -888.03 3274.77 -252.674 2713.57C108.442 2394.61 864.922 1841.96 278.194 1599.87" stroke="white" stroke-width="1.18334"/>
<path d="M1121.01 -68.8739C1044.72 824.797 -121.063 -13.284 -798.485 629.923C-1475.91 1273.13 -1064.85 1388.1 -1376.66 1784.32C-1701.75 2197.41 -2296.3 2131.42 -2412.33 2644.12C-2599.45 3470.93 -878.454 3285.32 -243.098 2724.12C118.018 2405.15 874.498 1852.51 287.77 1610.41" stroke="white" stroke-width="1.18334"/>
</g>
<path d="M40 50C40 44.4772 44.4772 40 50 40H406C411.523 40 416 44.4772 416 50V350H40V50Z" fill="white"/>
<circle cx="59" cy="59" r="4" fill="#FC4A4A"/>
<circle cx="72" cy="59" r="4" fill="#EAB734"/>
<circle cx="85" cy="59" r="4" fill="#2FC859"/>
<rect opacity="0.5" x="40" y="78" width="376" height="1" fill="#D9D9D9"/>
<rect opacity="0.15" x="60" y="99" width="170" height="170" rx="10" fill="#666666"/>
<path opacity="0.1" fill-rule="evenodd" clip-rule="evenodd" d="M136.654 165.105L134.321 164.072C134.145 163.992 134.145 163.742 134.321 163.663L136.615 162.664C137.171 162.419 137.608 161.982 137.852 161.426L138.852 159.132C138.931 158.956 139.181 158.956 139.26 159.132L140.26 161.426C140.504 161.982 140.941 162.419 141.497 162.664L143.791 163.663C143.967 163.742 143.967 163.992 143.791 164.072L141.497 165.071C140.941 165.315 140.504 165.752 140.26 166.309L139.26 168.597C139.181 168.779 138.931 168.773 138.852 168.597L137.886 166.348C137.648 165.792 137.205 165.349 136.654 165.105ZM129.131 180.526L127.649 177.085L127.661 177.091C127.292 176.245 126.622 175.563 125.776 175.189L122.204 173.61C121.932 173.491 121.932 173.105 122.204 172.986L125.713 171.453C126.559 171.084 127.235 170.408 127.604 169.562L129.131 166.059C129.251 165.786 129.637 165.786 129.756 166.059L131.283 169.562C131.652 170.408 132.328 171.084 133.174 171.453L136.677 172.98C136.95 173.099 136.95 173.485 136.677 173.605L133.174 175.132C132.328 175.501 131.652 176.177 131.283 177.023L129.756 180.526C129.637 180.798 129.251 180.798 129.131 180.526ZM160.319 165.576H147.499C146.715 165.576 146.079 166.212 146.079 166.996C146.079 167.779 146.715 168.415 147.499 168.415H160.319C162.46 168.415 164.197 170.153 164.197 172.293V190.803L160.558 187.856C160.444 187.765 160.325 187.674 160.206 187.583L160.206 187.583L160.206 187.583C159.973 187.413 159.729 187.248 159.479 187.095C159.354 187.016 159.223 186.942 159.099 186.874L159.098 186.874C158.939 186.788 158.781 186.703 158.622 186.624C158.258 186.442 157.883 186.294 157.503 186.164C157.372 186.118 157.248 186.079 157.117 186.039C155.618 185.59 154.034 185.488 152.484 185.744C152.427 185.755 152.372 185.765 152.316 185.775C152.261 185.785 152.206 185.795 152.149 185.806C151.814 185.869 151.485 185.954 151.161 186.056C150.837 186.158 150.514 186.277 150.19 186.414C149.98 186.505 149.77 186.601 149.566 186.703C149.355 186.811 149.151 186.925 148.952 187.044L143.053 190.581C142.911 190.666 142.764 190.746 142.616 190.825L142.616 190.825C141.429 191.433 140.095 191.7 138.766 191.603C138.437 191.575 138.113 191.529 137.79 191.461C137.722 191.456 137.654 191.439 137.585 191.416C137.455 191.387 137.33 191.353 137.199 191.314L136.262 191.035L134.525 190.519C134.048 190.377 133.56 190.269 133.077 190.201C131.811 190.013 130.534 190.07 129.296 190.365C128.915 190.451 128.541 190.564 128.172 190.7C127.803 190.831 127.439 190.99 127.081 191.166L126.451 191.484V185.261C126.451 184.478 125.815 183.842 125.032 183.842C124.248 183.842 123.612 184.478 123.612 185.261V193.778C123.612 193.778 123.612 193.84 123.618 193.869V202.283C123.618 205.985 126.627 209 130.335 209H160.325C164.027 209 167.036 205.985 167.036 202.283V172.293C167.036 168.585 164.027 165.576 160.319 165.576ZM143.922 182.621C143.922 185.242 141.797 187.367 139.175 187.367C136.554 187.367 134.429 185.242 134.429 182.621C134.429 179.999 136.554 177.874 139.175 177.874C141.797 177.874 143.922 179.999 143.922 182.621Z" fill="black"/>
<rect opacity="0.2" x="245" y="109" width="136" height="6" fill="#7B7B7B"/>
<rect opacity="0.2" x="245" y="212" width="30" height="6" fill="black"/>
<rect opacity="0.2" x="245" y="160" width="44" height="4" fill="#7B7B7B"/>
<rect opacity="0.2" x="291" y="160" width="44" height="4" fill="#7B7B7B"/>
<rect opacity="0.2" x="337" y="160" width="44" height="4" fill="#7B7B7B"/>
<rect opacity="0.2" x="245" y="120" width="136" height="8" fill="black"/>
<rect opacity="0.2" x="245" y="131" width="116" height="8" fill="black"/>
<rect opacity="0.2" x="245" y="142" width="106" height="8" fill="black"/>
<rect x="245" y="174" width="83" height="22" rx="5" fill="black"/>
<path d="M256.26 189V180.6H259.8C260.696 180.6 261.484 180.776 262.164 181.128C262.852 181.48 263.384 181.972 263.76 182.604C264.144 183.236 264.336 183.968 264.336 184.8C264.336 185.632 264.144 186.364 263.76 186.996C263.384 187.628 262.852 188.12 262.164 188.472C261.484 188.824 260.696 189 259.8 189H256.26ZM257.46 187.956H259.728C260.424 187.956 261.024 187.824 261.528 187.56C262.04 187.296 262.436 186.928 262.716 186.456C262.996 185.976 263.136 185.424 263.136 184.8C263.136 184.168 262.996 183.616 262.716 183.144C262.436 182.672 262.04 182.304 261.528 182.04C261.024 181.776 260.424 181.644 259.728 181.644H257.46V187.956ZM268.73 189.072C268.09 189.072 267.522 188.932 267.026 188.652C266.53 188.372 266.138 187.988 265.85 187.5C265.562 187.004 265.418 186.444 265.418 185.82C265.418 185.188 265.562 184.628 265.85 184.14C266.138 183.652 266.53 183.272 267.026 183C267.522 182.72 268.09 182.58 268.73 182.58C269.362 182.58 269.926 182.72 270.422 183C270.926 183.272 271.318 183.652 271.598 184.14C271.886 184.62 272.03 185.18 272.03 185.82C272.03 186.452 271.886 187.012 271.598 187.5C271.318 187.988 270.926 188.372 270.422 188.652C269.926 188.932 269.362 189.072 268.73 189.072ZM268.73 188.064C269.138 188.064 269.502 187.972 269.822 187.788C270.15 187.604 270.406 187.344 270.59 187.008C270.774 186.664 270.866 186.268 270.866 185.82C270.866 185.364 270.774 184.972 270.59 184.644C270.406 184.308 270.15 184.048 269.822 183.864C269.502 183.68 269.138 183.588 268.73 183.588C268.322 183.588 267.958 183.68 267.638 183.864C267.318 184.048 267.062 184.308 266.87 184.644C266.678 184.972 266.582 185.364 266.582 185.82C266.582 186.268 266.678 186.664 266.87 187.008C267.062 187.344 267.318 187.604 267.638 187.788C267.958 187.972 268.322 188.064 268.73 188.064ZM274.791 189L272.427 182.64H273.519L275.619 188.4H275.103L277.287 182.64H278.259L280.395 188.4H279.891L282.039 182.64H283.071L280.695 189H279.591L277.587 183.744H277.923L275.895 189H274.791ZM287.636 182.58C288.156 182.58 288.612 182.68 289.004 182.88C289.404 183.08 289.716 183.384 289.94 183.792C290.164 184.2 290.276 184.716 290.276 185.34V189H289.124V185.472C289.124 184.856 288.972 184.392 288.668 184.08C288.372 183.768 287.952 183.612 287.408 183.612C287 183.612 286.644 183.692 286.34 183.852C286.036 184.012 285.8 184.248 285.632 184.56C285.472 184.872 285.392 185.26 285.392 185.724V189H284.24V182.64H285.344V184.356L285.164 183.9C285.372 183.484 285.692 183.16 286.124 182.928C286.556 182.696 287.06 182.58 287.636 182.58ZM292.408 189V180.096H293.56V189H292.408ZM298.484 189.072C297.844 189.072 297.276 188.932 296.78 188.652C296.284 188.372 295.892 187.988 295.604 187.5C295.316 187.004 295.172 186.444 295.172 185.82C295.172 185.188 295.316 184.628 295.604 184.14C295.892 183.652 296.284 183.272 296.78 183C297.276 182.72 297.844 182.58 298.484 182.58C299.116 182.58 299.68 182.72 300.176 183C300.68 183.272 301.072 183.652 301.352 184.14C301.64 184.62 301.784 185.18 301.784 185.82C301.784 186.452 301.64 187.012 301.352 187.5C301.072 187.988 300.68 188.372 300.176 188.652C299.68 188.932 299.116 189.072 298.484 189.072ZM298.484 188.064C298.892 188.064 299.256 187.972 299.576 187.788C299.904 187.604 300.16 187.344 300.344 187.008C300.528 186.664 300.62 186.268 300.62 185.82C300.62 185.364 300.528 184.972 300.344 184.644C300.16 184.308 299.904 184.048 299.576 183.864C299.256 183.68 298.892 183.588 298.484 183.588C298.076 183.588 297.712 183.68 297.392 183.864C297.072 184.048 296.816 184.308 296.624 184.644C296.432 184.972 296.336 185.364 296.336 185.82C296.336 186.268 296.432 186.664 296.624 187.008C296.816 187.344 297.072 187.604 297.392 187.788C297.712 187.972 298.076 188.064 298.484 188.064ZM307.267 189V187.656L307.207 187.404V185.112C307.207 184.624 307.063 184.248 306.775 183.984C306.495 183.712 306.071 183.576 305.503 183.576C305.127 183.576 304.759 183.64 304.399 183.768C304.039 183.888 303.735 184.052 303.487 184.26L303.007 183.396C303.335 183.132 303.727 182.932 304.183 182.796C304.647 182.652 305.131 182.58 305.635 182.58C306.507 182.58 307.179 182.792 307.651 183.216C308.123 183.64 308.359 184.288 308.359 185.16V189H307.267ZM305.179 189.072C304.707 189.072 304.291 188.992 303.931 188.832C303.579 188.672 303.307 188.452 303.115 188.172C302.923 187.884 302.827 187.56 302.827 187.2C302.827 186.856 302.907 186.544 303.067 186.264C303.235 185.984 303.503 185.76 303.871 185.592C304.247 185.424 304.751 185.34 305.383 185.34H307.399V186.168H305.431C304.855 186.168 304.467 186.264 304.267 186.456C304.067 186.648 303.967 186.88 303.967 187.152C303.967 187.464 304.091 187.716 304.339 187.908C304.587 188.092 304.931 188.184 305.371 188.184C305.803 188.184 306.179 188.088 306.499 187.896C306.827 187.704 307.063 187.424 307.207 187.056L307.435 187.848C307.283 188.224 307.015 188.524 306.631 188.748C306.247 188.964 305.763 189.072 305.179 189.072ZM313.118 189.072C312.502 189.072 311.95 188.936 311.462 188.664C310.982 188.392 310.602 188.012 310.322 187.524C310.042 187.036 309.902 186.468 309.902 185.82C309.902 185.172 310.042 184.608 310.322 184.128C310.602 183.64 310.982 183.26 311.462 182.988C311.95 182.716 312.502 182.58 313.118 182.58C313.654 182.58 314.138 182.7 314.57 182.94C315.002 183.18 315.346 183.54 315.602 184.02C315.866 184.5 315.998 185.1 315.998 185.82C315.998 186.54 315.87 187.14 315.614 187.62C315.366 188.1 315.026 188.464 314.594 188.712C314.162 188.952 313.67 189.072 313.118 189.072ZM313.214 188.064C313.614 188.064 313.974 187.972 314.294 187.788C314.622 187.604 314.878 187.344 315.062 187.008C315.254 186.664 315.35 186.268 315.35 185.82C315.35 185.364 315.254 184.972 315.062 184.644C314.878 184.308 314.622 184.048 314.294 183.864C313.974 183.68 313.614 183.588 313.214 183.588C312.806 183.588 312.442 183.68 312.122 183.864C311.802 184.048 311.546 184.308 311.354 184.644C311.162 184.972 311.066 185.364 311.066 185.82C311.066 186.268 311.162 186.664 311.354 187.008C311.546 187.344 311.802 187.604 312.122 187.788C312.442 187.972 312.806 188.064 313.214 188.064ZM315.386 189V187.284L315.458 185.808L315.338 184.332V180.096H316.49V189H315.386Z" fill="white"/>
<circle cx="251" cy="230" r="6" fill="#D9D9D9"/>
<circle cx="283" cy="230" r="6" fill="#D9D9D9"/>
<circle cx="267" cy="230" r="6" fill="#D9D9D9"/>
<circle cx="299" cy="230" r="6" fill="#D9D9D9"/>
<circle cx="315" cy="230" r="6" fill="#D9D9D9"/>
</svg>
